<?xml version="1.0" encoding="iso-8859-1"?>
<!-- Generator: Adobe Illustrator 16.0.0, SVG Export Plug-In . SVG Version: 6.00 Build 0)  -->
<!DOCTYPE svg PUBLIC "-//W3C//DTD SVG 1.1//EN" "http://www.w3.org/Graphics/SVG/1.1/DTD/svg11.dtd">
<svg version="1.1" id="Capa_1" xmlns="http://www.w3.org/2000/svg" xmlns:xlink="http://www.w3.org/1999/xlink" x="0px" y="0px"
	 width="433.325px" height="433.325px" viewBox="0 0 433.325 433.325" style="enable-background:new 0 0 433.325 433.325;"
	 xml:space="preserve">
<g>
	<path d="M353.978,64.246C334.905,40.385,285.368,0,220.671,0C177.413,0,136.25,18.085,98.328,53.753
		c-0.065,0.062-0.129,0.124-0.191,0.188C61.156,91.984,65.988,127.126,72.108,171.64c0.376,2.738,0.758,5.515,1.136,8.332
		c1.014,7.565-5.607,19.235-12.011,30.522c-9.623,16.958-19.572,34.493-7.417,42.777c20.771,14.156,24.38,42.019,27.873,68.978
		c0.83,6.401,1.688,13.022,2.76,19.459c1.85,11.104,11.219,16.501,28.642,16.501c7.747,0,16.02-0.956,24.027-1.882
		c6.861-0.793,13.342-1.542,18.53-1.542c2.9,0,5.166,0.232,6.925,0.708c20.933,5.673,39.22,47.999,45.831,73.345
		c0.536,2.059,2.121,3.677,4.166,4.258c0.541,0.153,1.092,0.229,1.639,0.229c1.522,0,3.012-0.58,4.143-1.66l107.291-102.394
		c1.66-1.584,2.27-3.979,1.572-6.166c-9.473-29.639,10.213-58.567,27.586-84.101c7.582-11.141,14.742-21.663,19.639-32.027
		C397.03,159.167,380.757,97.755,353.978,64.246z M202.799,151.742h-47.204c-10.597,0-19.22-8.622-19.22-19.222V84.453
		c0-10.6,8.623-19.222,19.22-19.222h52.688l-8.341,13.553h-44.348c-3.124,0-5.667,2.542-5.667,5.669v48.067
		c0,3.128,2.544,5.669,5.667,5.669h49.762L202.799,151.742z M211.567,174.381c-0.384,0.618-0.947,0.953-1.52,0.953
		c-0.296,0-0.595-0.088-0.875-0.272c-0.819-0.54-1.246-1.761-1.023-2.938l8.992-47.655l-25.874-8.516
		c-0.65-0.212-1.172-0.852-1.385-1.689c-0.212-0.84-0.083-1.764,0.34-2.45l42.608-69.223c0.58-0.94,1.574-1.224,2.393-0.679
		c0.822,0.542,1.248,1.765,1.023,2.938l-9.035,47.637l25.871,8.515c0.649,0.215,1.17,0.852,1.384,1.689
		c0.213,0.84,0.083,1.764-0.339,2.45L211.567,174.381z M316.376,118.904c0,2.182-1.77,3.948-3.951,3.948h-4.453v9.668
		c0,10.6-8.621,19.222-19.219,19.222h-52.664l8.33-13.553h44.334c3.123,0,5.666-2.541,5.666-5.669V84.453
		c0-3.126-2.543-5.669-5.666-5.669h-49.746l2.57-13.553h47.176c10.596,0,19.219,8.622,19.219,19.222v9.668h4.453
		c2.182,0,3.951,1.769,3.951,3.951V118.904L316.376,118.904z"/>
</g>
<g>
</g>
<g>
</g>
<g>
</g>
<g>
</g>
<g>
</g>
<g>
</g>
<g>
</g>
<g>
</g>
<g>
</g>
<g>
</g>
<g>
</g>
<g>
</g>
<g>
</g>
<g>
</g>
<g>
</g>
</svg>
