<?xml version="1.0" encoding="iso-8859-1"?>
<!-- Generator: Adobe Illustrator 18.0.0, SVG Export Plug-In . SVG Version: 6.00 Build 0)  -->
<!DOCTYPE svg PUBLIC "-//W3C//DTD SVG 1.1//EN" "http://www.w3.org/Graphics/SVG/1.1/DTD/svg11.dtd">
<svg version="1.1" id="Capa_1" xmlns="http://www.w3.org/2000/svg" xmlns:xlink="http://www.w3.org/1999/xlink" x="0px" y="0px"
	 viewBox="0 0 310.334 310.334" style="enable-background:new 0 0 310.334 310.334;" xml:space="preserve">
<g>
	<path d="M288.834,162.994h-62.039c-4.047,0-7.363,3.21-7.496,7.255c-0.08,2.437-0.234,4.676-0.472,6.847
		c-3.66,33.452-31.771,58.678-65.39,58.678c-2.396,0-4.822-0.133-7.212-0.394c-17.358-1.899-32.794-10.637-43.463-24.604
		c-8.544-11.187-13.79-25.664-14.77-40.767c-0.256-3.945-3.531-7.015-7.484-7.015H21.5c-11.855,0-21.5,9.645-21.5,21.5v95.552
		c0,11.855,9.645,21.5,21.5,21.5h267.334c11.855,0,21.5-9.645,21.5-21.5v-95.552C310.334,172.639,300.689,162.994,288.834,162.994z
		 M295.334,280.046c0,3.584-2.916,6.5-6.5,6.5H21.5c-3.584,0-6.5-2.916-6.5-6.5v-95.552c0-3.584,2.916-6.5,6.5-6.5h52.243
		c2.17,15.475,8.125,30.138,17.1,41.887c13.185,17.261,32.273,28.061,53.752,30.409c2.929,0.321,5.904,0.483,8.843,0.483
		c41.285,0,75.808-30.974,80.3-72.045c0.027-0.244,0.053-0.489,0.078-0.734h55.019c3.584,0,6.5,2.916,6.5,6.5V280.046z"/>
	<path d="M147.856,220.468c0,0.001,0.001,0.001,0.002,0.001c1.854,0.202,3.731,0.305,5.579,0.305
		c25.952,0,47.653-19.479,50.478-45.31c1.94-17.738-2.799-34.573-7.384-50.854c-8.19-29.091-15.927-56.568,7.827-93.85
		c3.763-5.905,2.72-13.598-2.48-18.291c-2.631-2.374-6.031-3.681-9.574-3.681c-3.207,0-6.357,1.097-8.872,3.088
		c-29.054,23.01-51.023,51.851-65.299,85.721c-14.458,34.302-15.385,60.483-15.325,67.69
		C103.055,194.902,121.579,217.594,147.856,220.468z M189.521,26.24c-24.655,41.253-15.517,73.707-7.429,102.435
		c4.39,15.589,8.535,30.314,6.912,45.158c-1.992,18.209-17.282,31.94-35.567,31.94c-1.307,0-2.636-0.073-3.952-0.217l0.002,0.001
		c-21.555-2.358-31.532-22.593-31.68-40.396C117.576,137.438,132.374,73.394,189.521,26.24z"/>
	<path d="M139.263,177.635c0.046-0.017,0.092-0.033,0.137-0.05c3.42-1.234,5.422-4.844,4.564-8.377
		c-2.773-11.422-0.449-25.391,1.112-31.087c1.069-3.878-1.205-7.889-5.082-8.964c-3.878-1.076-7.898,1.2-8.974,5.08
		c-0.295,1.064-5.545,20.524-1.226,38.377C130.8,176.774,135.24,179.094,139.263,177.635z"/>
	<circle cx="145.341" cy="187.913" r="7.292"/>
</g>
<g>
</g>
<g>
</g>
<g>
</g>
<g>
</g>
<g>
</g>
<g>
</g>
<g>
</g>
<g>
</g>
<g>
</g>
<g>
</g>
<g>
</g>
<g>
</g>
<g>
</g>
<g>
</g>
<g>
</g>
</svg>
