<?xml version="1.0" ?><svg width="100px" height="100px" viewBox="0 0 100 100" data-name="Layer 1" id="Layer_1" xmlns="http://www.w3.org/2000/svg"><path d="M61.25,75a1.23,1.23,0,0,0-.9.38,17.29,17.29,0,0,1-25,0,1.23,1.23,0,0,0-.9-.38c-7.3,0-12.33,1.73-14.94,5.15A9.56,9.56,0,0,0,17.92,88a1.25,1.25,0,0,0,2.41-.66,7,7,0,0,1,1.22-5.71c2-2.64,6.32-4.06,12.41-4.14a19.79,19.79,0,0,0,27.81,0c6.09.08,10.38,1.5,12.41,4.14a7,7,0,0,1,1.22,5.7,1.25,1.25,0,0,0,.87,1.54,1.33,1.33,0,0,0,.34,0,1.26,1.26,0,0,0,1.2-.92,9.56,9.56,0,0,0-1.62-7.86C73.58,76.76,68.55,75,61.25,75Z"/><path d="M74.59,42.88A1.24,1.24,0,0,0,73,42.24a31.1,31.1,0,0,1-4,1.43l-.16,0C66.69,31.75,58.21,23.55,47.87,23.55S29,31.75,27,43.63a5.79,5.79,0,0,0,0,11.25c2.11,12.71,11,22.17,20.92,22.17s18.8-9.46,20.91-22.17a5.56,5.56,0,0,0,4.4-5.63,5.94,5.94,0,0,0-1.41-3.87c.72-.25,1.44-.53,2.18-.85A1.25,1.25,0,0,0,74.59,42.88ZM47.87,26.05c9.15,0,16.64,7.45,18.45,18.2a23.44,23.44,0,0,1-20-5.81,1.26,1.26,0,0,0-1.6-.16l-7,4.79.65-3a1.25,1.25,0,0,0-2.25-1,11.32,11.32,0,0,1-6.46,4.13C31.72,33,39,26.05,47.87,26.05Zm22.81,23.2A3,3,0,0,1,68,52.44h0l-.2,0a1.26,1.26,0,0,0-1.35,1.08c-1.61,12-9.61,21.06-18.59,21.06s-17-9.06-18.6-21.06A1.25,1.25,0,0,0,28,52.41h-.11l-.19,0a3.23,3.23,0,0,1,0-6.37h0l.2,0a1.21,1.21,0,0,0,.63-.13A16.59,16.59,0,0,0,35,43.5l-.45,2.1a1.25,1.25,0,0,0,.52,1.3,1.27,1.27,0,0,0,.7.21,1.24,1.24,0,0,0,.71-.22l8.79-6a26.72,26.72,0,0,0,23.6,5.36A3.18,3.18,0,0,1,70.68,49.25Z"/><path d="M42.32,53.13a1.25,1.25,0,0,0-1.58-.79l-2.87,1a1.25,1.25,0,0,0,.4,2.43,1.45,1.45,0,0,0,.41-.06l2.86-1A1.23,1.23,0,0,0,42.32,53.13Z"/><path d="M56.63,53.32l-2.87-1a1.25,1.25,0,0,0-1.58.79A1.23,1.23,0,0,0,53,54.71l2.87,1a1.34,1.34,0,0,0,.4.06,1.25,1.25,0,0,0,.4-2.43Z"/><path d="M49.47,19.77h0a1.24,1.24,0,0,0,.86-.38,1.22,1.22,0,0,0,.35-.89,1.26,1.26,0,0,0-1.25-1.23h0a1.28,1.28,0,0,0-.88.39,1.24,1.24,0,0,0,.9,2.11Z"/><path d="M83.24,24.59c-4.58-3.9-14.32-6.52-26.72-7.19a1.25,1.25,0,0,0-1,2.08,1.27,1.27,0,0,0,.87.42c7.67.39,14.66,1.65,19.66,3.55a19,19,0,0,1,5.55,3,4.3,4.3,0,0,1,1.76,3v0c0,1.08-.7,2.21-2.09,3.36a22.62,22.62,0,0,1-6.59,3.43,1.28,1.28,0,0,0-.75,1.61,1.26,1.26,0,0,0,1.18.82,1.2,1.2,0,0,0,.42-.07,25.11,25.11,0,0,0,7.33-3.86c2-1.62,3-3.4,3-5.29v-.05A6.59,6.59,0,0,0,83.24,24.59Z"/><path d="M22.86,37.48A1.25,1.25,0,0,0,24,36.7a1.28,1.28,0,0,0,0-1,1.23,1.23,0,0,0-.69-.67,19.91,19.91,0,0,1-5.67-3.23,4.37,4.37,0,0,1-1.76-3.09v0c0-1.4,1.33-3,3.7-4.36A1.25,1.25,0,0,0,20,22.66a1.29,1.29,0,0,0-1.71-.45c-3.21,1.87-4.88,4.05-4.94,6.47v.07a6.66,6.66,0,0,0,2.6,5,21.72,21.72,0,0,0,6.4,3.69A1.27,1.27,0,0,0,22.86,37.48Z"/><path d="M25.42,21.88a1.49,1.49,0,0,0,.36-.05h0a1.28,1.28,0,0,0,.73-.6,1.21,1.21,0,0,0,.09-.95,1.25,1.25,0,0,0-1.19-.89,1.29,1.29,0,0,0-.35.05h0A1.24,1.24,0,0,0,24.22,21,1.25,1.25,0,0,0,25.42,21.88Z"/><path d="M47,61h0a9.88,9.88,0,0,0-7.14,3l-.19.2a1.26,1.26,0,0,0,0,1.77,1.29,1.29,0,0,0,.87.35,1.25,1.25,0,0,0,.9-.38l.19-.2a7.41,7.41,0,0,1,10.69,0A1.25,1.25,0,1,0,54.17,64,9.87,9.87,0,0,0,47,61Z"/><path d="M41.79,15.88a1.25,1.25,0,0,0-1-.85l-2.89-.42L36.59,12a1.25,1.25,0,0,0-2.24,0l-1.3,2.63L30.16,15a1.26,1.26,0,0,0-1,.85,1.24,1.24,0,0,0,.31,1.28l2.1,2-.49,2.89a1.25,1.25,0,0,0,1.81,1.32L35.47,22l2.59,1.37a1.3,1.3,0,0,0,.58.14,1.25,1.25,0,0,0,1.24-1.46l-.5-2.89,2.1-2A1.24,1.24,0,0,0,41.79,15.88Zm-4.63,2A1.26,1.26,0,0,0,36.81,19L37,20l-.93-.48a1.2,1.2,0,0,0-1.16,0L34,20l.18-1a1.27,1.27,0,0,0-.36-1.11L33,17.14l1-.15A1.25,1.25,0,0,0,35,16.3l.47-.94.47.94a1.25,1.25,0,0,0,.94.69l1,.15Z"/></svg>