<?xml version="1.0" encoding="iso-8859-1"?>
<!-- Generator: Adobe Illustrator 19.0.0, SVG Export Plug-In . SVG Version: 6.00 Build 0)  -->
<svg version="1.1" id="Layer_1" xmlns="http://www.w3.org/2000/svg" xmlns:xlink="http://www.w3.org/1999/xlink" x="0px" y="0px"
	 viewBox="0 0 206.351 206.351" style="enable-background:new 0 0 206.351 206.351;" xml:space="preserve">
<g>
	<g>
		<path d="M177.447,40.004c-0.046-0.965-0.133-1.909-0.217-2.855c-0.069-0.783-0.122-1.574-0.218-2.344
			c-0.113-0.909-0.275-1.789-0.423-2.677c-0.269-1.613-0.598-3.186-0.984-4.726c-0.164-0.653-0.303-1.323-0.487-1.961
			c-0.255-0.881-0.564-1.72-0.858-2.572c-0.214-0.619-0.414-1.248-0.648-1.85c-0.318-0.816-0.675-1.596-1.031-2.38
			c-0.271-0.598-0.539-1.197-0.833-1.776c-0.373-0.738-0.773-1.449-1.182-2.154c-0.34-0.587-0.69-1.163-1.055-1.726
			c-0.416-0.642-0.842-1.269-1.29-1.879c-0.434-0.593-0.892-1.158-1.355-1.719c-0.436-0.526-0.867-1.055-1.328-1.552
			c-0.584-0.63-1.205-1.212-1.829-1.793c-0.4-0.372-0.781-0.765-1.199-1.116c-1.076-0.908-2.197-1.757-3.382-2.518
			c-5.855-3.748-16.086-2.407-29.048-0.695c-8.266,1.093-17.637,2.332-26.855,2.332c-9.218,0-18.59-1.239-26.856-2.332
			C63.404-0.006,53.177-1.347,47.321,2.405C26.575,15.718,22.791,51.08,38.499,83.32c-1.014,7.082-1.527,15.116-1.527,23.903
			c0,38.254,10.275,74.365,27.482,96.595c1.03,1.326,2.762,1.886,4.368,1.393c1.602-0.485,2.742-1.91,2.857-3.583
			c3.658-51.709,18.912-82.607,31.546-82.607c12.768,0,28.082,31.258,31.609,83.562c0.114,1.661,1.235,3.086,2.825,3.583
			c0.398,0.126,0.805,0.185,1.207,0.185c1.207,0,2.375-0.541,3.156-1.519c17.708-22.159,28.283-58.649,28.283-97.609
			c0-9.209-0.619-17.602-1.839-24.973c1.817-3.847,3.341-7.738,4.608-11.629c0.005-0.014,0.016-0.024,0.021-0.038
			c0.012-0.036,0.02-0.071,0.032-0.107c0.258-0.797,0.464-1.592,0.699-2.388c0.329-1.115,0.666-2.229,0.95-3.34
			c0.221-0.863,0.399-1.72,0.594-2.581c0.237-1.048,0.474-2.095,0.671-3.136c0.161-0.854,0.293-1.701,0.427-2.55
			c0.166-1.046,0.323-2.087,0.449-3.122c0.101-0.829,0.184-1.651,0.26-2.473c0.095-1.037,0.171-2.065,0.226-3.088
			c0.044-0.812,0.082-1.619,0.1-2.422c0.024-1.008,0.017-2.002,0.001-2.993C177.491,41.586,177.484,40.79,177.447,40.004z
			 M160.285,82.373c1.286,7.209,1.937,15.57,1.937,24.85c0.003,32.276-7.463,62.607-20.29,83.637
			c-4.376-41.387-17.456-79.92-38.707-79.92c-21.015,0-34.083,37.922-38.577,78.741c-12.389-20.995-19.594-50.88-19.594-82.457
			c0-8.91,0.545-16.966,1.622-23.947c0.126-0.829-0.004-1.681-0.383-2.431C31.996,52.425,34.419,20.287,51.685,9.207
			c3.37-2.162,13.668-0.793,23.623,0.513c8.515,1.128,18.166,2.403,27.916,2.403c4.365,0,8.695-0.278,12.927-0.661L98.474,29.011
			c-0.955,0.947-1.373,2.3-1.124,3.618c0.249,1.318,1.136,2.427,2.367,2.959l14.69,6.353l-3.125,7.757
			c-0.426,1.061-0.383,2.249,0.114,3.275l9.706,20.008c0.682,1.413,2.111,2.277,3.634,2.277c0.28,0,0.56-0.027,0.844-0.091
			l22.048-4.703l16.105,2.198c-0.931,2.424-1.935,4.841-3.101,7.229C160.257,80.66,160.135,81.529,160.285,82.373z M166.341,64.862
			l-18.32-2.503c-0.465-0.063-0.931-0.043-1.389,0.055l-19.642,4.19l-7.544-15.55l3.93-9.75c0.816-2.034-0.135-4.346-2.147-5.218
			l-12.827-5.544l20.703-20.553l2.036-0.264c1.975-0.261,3.951-0.517,5.895-0.754c7.865-0.954,15.032-1.493,17.728,0.237
			c0.992,0.636,1.925,1.358,2.818,2.132c0.209,0.18,0.402,0.381,0.606,0.568c0.718,0.664,1.414,1.359,2.065,2.109
			c0.127,0.145,0.25,0.293,0.375,0.441C169.796,25.481,171.915,45,166.341,64.862z"/>
	</g>
</g>
<g>
</g>
<g>
</g>
<g>
</g>
<g>
</g>
<g>
</g>
<g>
</g>
<g>
</g>
<g>
</g>
<g>
</g>
<g>
</g>
<g>
</g>
<g>
</g>
<g>
</g>
<g>
</g>
<g>
</g>
</svg>
