<?xml version="1.0" encoding="utf-8"?>
<!-- Svg Vector Icons : http://www.onlinewebfonts.com/icon -->
<!DOCTYPE svg PUBLIC "-//W3C//DTD SVG 1.1//EN" "http://www.w3.org/Graphics/SVG/1.1/DTD/svg11.dtd">
<svg version="1.1" xmlns="http://www.w3.org/2000/svg" xmlns:xlink="http://www.w3.org/1999/xlink" x="0px" y="0px" viewBox="0 0 1000 1000" enable-background="new 0 0 1000 1000" xml:space="preserve">
<metadata> Svg Vector Icons : http://www.onlinewebfonts.com/icon </metadata>
<g><g transform="translate(0.000000,512.000000) scale(0.100000,-0.100000)"><path d="M4837.6,5007.1c-224.2-57.5-490.5-281.7-693.6-586.3c-465.6-697.4-887.1-1975.3-1186-3609.6c-38.3-205-70.9-373.6-72.8-375.5c-1.9-3.8-82.4-44.1-178.2-92C1921.6-49,1657.2-1058.7,2143.8-1800.2c239.5-367.9,628.4-605.4,1082.5-666.7c170.5-21.1,174.4-23,268.2-116.9c394.7-388.9,1099.8-616.9,1714.8-553.7c521.1,55.5,950.3,235.7,1264.5,530.7l126.4,120.7l172.4,21.1c337.2,42.2,611.2,170.5,854.5,398.5c469.4,440.7,605.4,1120.8,339.1,1705.2C7834.1-68.2,7575.5,200,7290,343.7c-95.8,47.9-176.3,88.1-178.2,92c-1.9,1.9-34.5,170.5-72.8,371.7c-249.1,1358.4-588.2,2496.5-963.7,3232.2c-249.1,486.7-511.6,791.3-797,921.6C5159.5,5014.8,4958.3,5035.9,4837.6,5007.1z M5144.2,4574.1c228-109.2,540.3-592,791.3-1218.5c295-745.3,615-1996.4,764.4-2994.6l34.5-229.9l187.8-72.8c226.1-86.2,364-174.3,482.8-306.6c191.6-212.7,283.6-452.1,283.6-731.9c0-304.6-103.5-549.9-321.9-768.3c-216.5-216.5-457.9-314.2-779.8-314.2h-151.4l-128.4-136c-224.2-237.6-438.7-365.9-781.7-469.4c-159-47.9-201.2-53.7-507.7-53.7c-365.9-1.9-494.3,19.2-753,124.5c-214.6,86.2-339.1,170.5-528.8,356.4l-180.1,178.2h-149.4c-318.1,0-559.5,97.7-776,314.2c-218.4,218.4-321.9,463.7-321.9,768.3c0,482.8,285.5,867.9,776,1044.2c134.1,47.9,172.4,69,180.1,101.5c3.8,23,21.1,132.2,38.3,243.3c90.1,570.9,287.4,1469.5,448.3,2023.2c356.4,1230,785.5,2030.9,1161,2168.8C4979.4,4625.8,5052.2,4618.2,5144.2,4574.1z"/><path d="M2666.9-846.1c-67.1-67.1-69-69-59.4-199.2c24.9-348.7,300.8-647.6,653.3-712.7c136-24.9,206.9-11.5,270.2,51.7c136,137.9,26.8,352.5-178.2,352.5c-168.6,0-346.8,193.5-346.8,375.5c0,113-90.1,199.2-212.7,199.2C2751.2-779,2714.8-798.2,2666.9-846.1z"/><path d="M6881.9-2930.6c-216.5-224.2-387-467.5-473.2-680.2c-55.5-137.9-59.4-162.9-59.4-387c0-220.3,3.8-249.1,51.7-348.7c141.8-304.6,479-482.8,800.8-421.5c331.5,61.3,553.7,281.7,615,607.4c51.7,281.7-42.1,595.8-285.5,938.8c-105.4,149.4-323.8,390.8-406.2,450.2l-51.7,38.3L6881.9-2930.6z M7221-3492c176.3-254.8,235.7-479,174.3-664.8c-47.9-145.6-229.9-241.4-387-206.9c-262.5,59.4-342.9,348.7-183.9,674.4c95.8,193.5,241.4,387,274,360.2C7111.8-3338.7,7165.4-3413.4,7221-3492z"/></g></g>
</svg>