<?xml version="1.0" encoding="iso-8859-1"?>
<!-- Generator: Adobe Illustrator 18.0.0, SVG Export Plug-In . SVG Version: 6.00 Build 0)  -->
<!DOCTYPE svg PUBLIC "-//W3C//DTD SVG 1.1//EN" "http://www.w3.org/Graphics/SVG/1.1/DTD/svg11.dtd">
<svg version="1.1" id="Capa_1" xmlns="http://www.w3.org/2000/svg" xmlns:xlink="http://www.w3.org/1999/xlink" x="0px" y="0px"
	 viewBox="0 0 56.821 56.821" style="enable-background:new 0 0 56.821 56.821;" xml:space="preserve">
<g>
	<path d="M13.944,5.929c-5.238,1.856-6.764,8.42-5.964,13.733c0.075,0.496,0.501,0.852,0.987,0.852c0.05,0,0.1-0.004,0.15-0.011
		c0.546-0.083,0.922-0.592,0.84-1.138c-0.681-4.528,0.485-10.074,4.655-11.552c0.521-0.185,0.793-0.756,0.608-1.276
		C15.035,6.016,14.463,5.743,13.944,5.929z"/>
	<path d="M54.043,19.756c0.009-0.247,0.023-0.495,0.028-0.741c0.047-2.786-0.202-5.522-0.893-8.135
		c-0.205-0.774-0.508-1.539-0.903-2.287c-1.185-2.243-3.194-4.33-5.84-6.031C41.919-0.342,35.621-0.819,30.39,1.345l-0.195,0.083
		c-0.095,0.041-0.188,0.082-0.28,0.115c-0.232,0.08-0.437,0.155-0.621,0.224c-0.046,0.017-0.08,0.031-0.123,0.047
		c-0.129,0.049-0.257,0.098-0.365,0.14c-0.013,0.005-0.021,0.008-0.034,0.013c-0.892,0.344-0.914,0.34-2.413-0.1
		c-3.245-0.958-9.39-2.316-14.086-0.65c-5.73,2.031-10.81,8.753-9.238,19.19c0.186,1.235,0.367,2.481,0.549,3.732
		c1.312,9.016,2.668,18.339,6.155,26.757l0.119,0.288c0.866,2.108,2.315,5.638,4.837,5.638h0.203l0.187-0.079
		c2.314-0.979,3.18-3.202,3.813-4.824c0.427-1.095,0.807-2.211,1.174-3.289c0.483-1.418,0.954-2.794,1.516-4.114
		c1.27,2.585,3.865,6.799,7.292,6.799c0.402,0,0.816-0.058,1.24-0.184c2.253-0.669,3.384-2.996,4.209-4.696l0.066-0.137
		c0.174-0.357,0.395-0.771,0.634-1.221c0.238-0.447,0.498-0.944,0.754-1.454c0.25,0.806,0.468,1.634,0.682,2.456
		c0.239,0.914,0.485,1.859,0.772,2.741c1.21,3.729,2.782,7.574,5.267,7.829c0.086,0.009,0.172,0.014,0.258,0.014
		c0.044,0,0.087-0.01,0.131-0.012c0.064-0.003,0.127-0.009,0.191-0.018c0.093-0.012,0.185-0.031,0.276-0.054
		c0.063-0.016,0.125-0.032,0.187-0.053c0.089-0.03,0.177-0.067,0.266-0.107c0.063-0.029,0.126-0.057,0.189-0.091
		c0.085-0.046,0.169-0.101,0.253-0.157c0.063-0.042,0.127-0.083,0.19-0.13c0.082-0.063,0.163-0.135,0.243-0.207
		c0.062-0.056,0.125-0.108,0.187-0.169c0.082-0.081,0.162-0.173,0.242-0.264c0.058-0.066,0.117-0.127,0.175-0.198
		c0.089-0.109,0.176-0.232,0.263-0.353c0.047-0.066,0.096-0.125,0.143-0.195c0.134-0.198,0.265-0.409,0.395-0.636
		c1.959-3.434,2.799-7.259,3.611-10.958l0.287-1.296c0.32-1.429,0.676-2.903,1.039-4.411c0.142-0.591,0.286-1.189,0.429-1.791
		c1.14-4.783,2.261-9.862,2.547-14.831C54.024,20.407,54.031,20.082,54.043,19.756z M18.178,47.983
		c-0.361,1.059-0.733,2.153-1.145,3.208c-0.64,1.642-1.239,2.961-2.512,3.608c-1.134-0.283-2.345-3.231-2.814-4.376l-0.121-0.294
		c-3.391-8.188-4.729-17.385-6.023-26.279c-0.183-1.255-0.364-2.503-0.551-3.741c-1.01-6.71,1.05-14.57,7.929-17.009
		c1.361-0.481,2.899-0.663,4.445-0.663c3.358,0,6.747,0.857,8.409,1.347c0.342,0.101,0.622,0.178,0.879,0.245L23.202,9.43l5.9,4.917
		l-6,7l5.938,4.948l-5.933,5.933l3.483,3.484c-1.736,0.725-3.383,2.132-4.788,4.185C20.07,42.432,19.108,45.254,18.178,47.983z
		 M33.263,44.138c-0.251,0.473-0.483,0.908-0.667,1.285l-0.067,0.138c-0.7,1.441-1.571,3.235-2.979,3.652
		c-3.325,0.997-6.392-6.003-6.73-6.802l-0.089-0.213c0.106-0.188,0.207-0.359,0.308-0.526c0.134-0.217,0.268-0.434,0.413-0.647
		c0.075-0.109,0.157-0.227,0.248-0.35c0.884-1.208,2.505-2.985,4.598-3.439l0.337-0.05c0.552-0.082,1.104-0.061,1.653,0.054
		c0.021,0.005,0.042,0.007,0.063,0.012c0.249,0.056,0.497,0.136,0.745,0.232c0.032,0.012,0.062,0.019,0.094,0.032
		c0.274,0.112,0.547,0.247,0.818,0.409c0.321,0.191,0.611,0.409,0.884,0.643c0.101,0.086,0.192,0.187,0.289,0.281
		c0.157,0.152,0.311,0.306,0.452,0.471c0.132,0.156,0.257,0.325,0.38,0.498c0.08,0.111,0.161,0.22,0.235,0.336
		c0.16,0.249,0.314,0.513,0.461,0.797c0.016,0.03,0.032,0.06,0.048,0.09C34.368,42.062,33.785,43.158,33.263,44.138z M47.75,42.633
		c-0.781,3.553-1.587,7.227-3.396,10.396c-0.608,1.065-1.227,1.653-1.647,1.632c-0.458-0.048-1.723-0.771-3.569-6.457
		c-0.269-0.827-0.497-1.702-0.739-2.629c-0.31-1.187-0.637-2.427-1.072-3.628c-0.673-1.859-1.612-3.621-3.175-4.938
		c-0.007-0.006-0.014-0.011-0.021-0.017c-0.338-0.283-0.701-0.547-1.1-0.785c-0.269-0.16-0.541-0.297-0.814-0.42
		c-0.111-0.05-0.222-0.091-0.333-0.136c-0.158-0.063-0.316-0.122-0.476-0.173c-0.139-0.045-0.279-0.085-0.419-0.121
		c-0.131-0.033-0.261-0.06-0.393-0.085c-0.153-0.03-0.305-0.061-0.459-0.08c-0.127-0.016-0.255-0.019-0.383-0.027
		c-0.141-0.009-0.281-0.03-0.423-0.03c-0.158,0-0.317,0.005-0.476,0.017l-2.923-2.923l6.067-6.067l-6.062-5.052l6-7l-6.1-5.083
		l3.239-5.038c0.134-0.048,0.282-0.104,0.449-0.169c0.097-0.038,0.214-0.082,0.328-0.126c0.207-0.079,0.434-0.163,0.716-0.261
		c0.14-0.049,0.278-0.107,0.417-0.168l0.164-0.07c4.108-1.697,8.936-1.566,12.752,0.255c0.5,0.239,0.986,0.499,1.447,0.796h0
		c3.108,1.998,5.2,4.536,5.891,7.147c0.651,2.46,0.878,5.066,0.822,7.738c-0.123,5.878-1.615,12.078-2.982,17.757
		c-0.365,1.518-0.723,3.003-1.045,4.441L47.75,42.633z"/>
</g>
<g>
</g>
<g>
</g>
<g>
</g>
<g>
</g>
<g>
</g>
<g>
</g>
<g>
</g>
<g>
</g>
<g>
</g>
<g>
</g>
<g>
</g>
<g>
</g>
<g>
</g>
<g>
</g>
<g>
</g>
</svg>
