<?xml version="1.0" encoding="UTF-8"?>
<svg width="752pt" height="752pt" version="1.1" viewBox="0 0 752 752" xmlns="http://www.w3.org/2000/svg">
 <path d="m376 439.67c103.14 0 185.16-78.496 188.59-81.84 1.5469-1.4961 2.4141-3.5547 2.4141-5.707 0-2.1562-0.87109-4.2148-2.4141-5.7109-3.4375-3.3359-85.457-81.832-188.59-81.832-103.14 0-185.16 78.496-188.6 81.84-1.543 1.4961-2.4102 3.5547-2.4102 5.7109 0 2.1484 0.87109 4.2109 2.4102 5.707 3.4414 3.3359 85.457 81.832 188.6 81.832zm-62.016-149.24c-15.766 15.848-25.531 37.664-25.531 61.699 0 4.375 3.582 7.957 7.957 7.957 0.13672 0 0.26562-0.03125 0.39844-0.039062 4.1914-0.21484 7.5625-3.6797 7.5625-7.918v-0.085938c0.16406-39.387 32.234-71.469 71.629-71.543 39.398 0.074218 71.547 32.23 71.629 71.629-0.074218 39.395-32.23 71.547-71.629 71.629-19.105 0-37.09-7.4766-50.621-21.008-2.9297-2.9297-7.9375-2.9922-10.996-0.24609-0.097656 0.085938-0.21484 0.15234-0.30859 0.24609-3.0273 3.0273-3.0781 7.9219-0.20703 11.043-52.609-16.398-93.758-48.59-109-61.66 15.258-13.09 56.453-45.312 109.11-61.703zm233.14 61.703c-15.227 13.094-56.41 45.344-109.14 61.727 15.781-15.852 25.562-37.68 25.562-61.73 0-24.035-9.7695-45.852-25.535-61.699 52.676 16.395 93.879 48.621 109.12 61.703zm-237.5 26.973c0.79688 1.9141 0.79688 4.0586-0.074219 6.0508-0.74219 1.8555-2.1992 3.2734-3.9414 4.1055-0.125 0.0625-0.23047 0.14063-0.35938 0.19531-0.95703 0.39844-1.9883 0.55469-3.0273 0.55469-3.2617 0-6.1289-1.9102-7.3203-4.9336-0.79688-1.9883-0.79688-4.1406 0-6.1289 0.78906-1.9102 2.3867-3.418 4.375-4.2148 0.125-0.050781 0.25-0.066407 0.37891-0.11328 3.9023-1.4023 8.4258 0.63281 9.9688 4.4844zm66.375 28.734c30.715 0 55.711-24.992 55.711-55.707 0.003906-30.719-24.992-55.719-55.711-55.719-5.6016 0-11.148 0.83203-16.477 2.4805-3.1641 0.98047-5.3906 3.8125-5.5898 7.1172-0.20312 3.3008 1.6562 6.3867 4.6797 7.7422 5.7266 2.5703 9.4258 8.2656 9.4258 14.492 0 8.7812-7.1367 15.918-15.918 15.918-6.2266 0-11.922-3.6992-14.492-9.4258-1.3594-3.0273-4.4531-4.9453-7.7461-4.6836-3.3047 0.20312-6.1367 2.4297-7.1172 5.5938-1.6445 5.3281-2.4805 10.867-2.4805 16.477 0.003906 30.723 24.996 55.715 55.715 55.715zm-23.875-47.75c17.555 0 31.836-14.281 31.836-31.836 0-5.625-1.4961-11.035-4.1953-15.742 20.184 1.9023 36.035 18.941 36.035 39.621 0 21.941-17.855 39.789-39.797 39.789-20.672 0-37.715-15.848-39.621-36.031 4.7109 2.6953 10.113 4.1992 15.742 4.1992zm-164.89-58.133c-3.0586-3.1523-2.9844-8.1914 0.16406-11.246 3.4414-3.3438 85.457-81.836 188.6-81.836 103.14 0 185.16 78.496 188.59 81.836 3.1602 3.0586 3.2305 8.0938 0.17188 11.246-3.0625 3.1602-8.0977 3.2305-11.258 0.17188-0.79297-0.77344-80.938-77.344-177.51-77.344-96.574 0-176.71 76.57-177.51 77.34-1.5469 1.4961-3.5469 2.2461-5.5391 2.2461-2.0781 0-4.1523-0.80469-5.7148-2.4141zm366.59 83.969c-0.17188 0.15234-17.504 15.156-45.402 31.047-6.5781 3.75-10.598 10.52-13.953 17.855-8.8086-3.8594-19.832-2.3242-26.824 4.6758-4.5078 4.5117-6.9961 10.508-6.9961 16.887 0 1.6289 0.16406 3.2383 0.48438 4.8008-3.4727-1.0234-7.0625-2.2227-10.363-3.3242-12.363-4.1289-24.047-8.0312-33.676-6.2188-13.871 2.6172-27.699 3.9453-41.094 3.9453-96.805 0-177.02-68.973-177.82-69.668-3.3008-2.8789-8.3359-2.5391-11.223 0.76562-2.8945 3.3047-2.5586 8.332 0.75391 11.223 3.4375 3.0039 85.391 73.594 188.29 73.594 14.379 0 29.199-1.4219 44.043-4.2188 5.5781-1.043 16.258 2.5195 25.676 5.668 10.059 3.3672 19.711 6.5859 28.062 6.5859 1.3398 0 2.6367-0.09375 3.9062-0.27344 2.1875 0.64844 4.4805 0.98828 6.8281 0.98828 6.3789 0 12.379-2.4844 16.883-6.9883 4.5078-4.5117 6.9961-10.508 6.9961-16.887 0-3.2578-0.65234-6.4141-1.8906-9.3242 2.9492-7.043 6.0234-14.113 9.793-16.262 29.387-16.742 47.238-32.238 47.988-32.891 3.3008-2.8945 3.6484-7.9141 0.75391-11.223-2.875-3.3008-7.9102-3.6484-11.223-0.75781zm-65.648 63.434c0.71094 0.37109 1.3828 0.82031 1.9648 1.4023 0.007813 0.003907 0.007813 0.003907 0.007813 0.007813 1.5117 1.5 2.3281 3.5 2.3281 5.625s-0.82422 4.125-2.3398 5.6328c-2.9688 2.9727-8.1406 3.0039-11.176 0.050781-0.019532-0.023438-0.046875-0.039063-0.070313-0.0625-1.5117-1.5-2.3281-3.5-2.3281-5.6211 0-2.125 0.82422-4.125 2.3281-5.625 1.5078-1.5078 3.5039-2.3281 5.625-2.3281 1.3047-0.007812 2.543 0.33594 3.6602 0.91797zm63.879 29.547c-9.3125-9.3047-24.449-9.3047-33.762 0-4.5078 4.5117-6.9961 10.508-6.9961 16.883 0 6.3789 2.4844 12.375 6.9961 16.879 4.6562 4.6562 10.766 6.9844 16.879 6.9844s12.227-2.3242 16.883-6.9805c4.5078-4.5117 6.9961-10.508 6.9961-16.887 0-6.375-2.4883-12.371-6.9961-16.879zm-11.254 22.508c-3.1055 3.0977-8.1445 3.1055-11.254-0.003906-1.5078-1.5-2.3359-3.5-2.3359-5.6211s0.82422-4.125 2.3359-5.625c1.5547-1.5469 3.5898-2.3281 5.625-2.3281 2.0352 0 4.0742 0.77734 5.625 2.3281v0.003906c1.5078 1.5 2.3359 3.5 2.3359 5.625s-0.82422 4.1172-2.332 5.6211zm-72.406 17.77c2.6289 3.5859 1.9141 8.5195-1.6719 11.137-1.4297 1.0391-3.0195 1.5977-4.6914 1.5977-2.4609 0-4.8477-1.1133-6.4453-3.2617-2.625-3.5-1.832-8.5156 1.6719-11.145 3.582-2.6289 8.5156-1.832 11.137 1.6719zm23.961-7.8047c-1.4414 1.0312-3.1055 1.5977-4.7773 1.5977-2.3867 0-4.7734-1.1133-6.3633-3.2617-2.6289-3.5-1.8281-8.5156 1.6719-11.145 3.5039-2.5469 8.5195-1.8281 11.148 1.6719 2.6211 3.582 1.8164 8.5117-1.6797 11.137zm37.168-58.254c-1.9883 0-4.0586-0.79688-5.5742-2.3867-3.1875-3.1016-3.1875-8.1172-0.082031-11.219 3.1836-3.1055 8.1914-3.1055 11.301 0 3.1016 3.0977 3.1016 8.1172 0 11.219-1.5898 1.5898-3.582 2.3867-5.6445 2.3867zm-28.098 76.406c3.1016 3.1836 3.1016 8.1992 0 11.301-1.5977 1.5117-3.5859 2.3047-5.6484 2.3047-2.0664 0-4.0547-0.79687-5.6484-2.3047-3.1016-3.1055-3.1016-8.1992 0-11.301 3.0977-3.1055 8.1953-3.1055 11.297 0z"/>
</svg>
