<svg xmlns="http://www.w3.org/2000/svg" xmlns:xlink="http://www.w3.org/1999/xlink" viewBox="0 0 512 512"><defs><linearGradient id="linear-gradient" x1="352.7484" y1="307.7254" x2="147.2827" y2="93.454" gradientUnits="userSpaceOnUse"><stop offset="0.0026" stop-color="#df6a6a"/><stop offset="0.1836" stop-color="#ea776a"/><stop offset="0.4409" stop-color="#f4836a"/><stop offset="0.701" stop-color="#f7876a"/><stop offset="1" stop-color="#f7ae6a"/></linearGradient></defs><g id="Vital_Sign"><path d="M265.5328,384.8739a12.7655,12.7655,0,0,1-19.0658,0L133.3612,262.4105c-29.4964-31.9366-29.4964-83.7164,0-115.6533h0c29.4964-31.937,77.32-31.937,106.8162,0L256,163.8885l15.1524-16.4057c29.4492-31.8852,77.4138-32.81,107.08-1.1622,29.9022,31.9,30.0376,84.0074.4062,116.09Z" style="fill:url(#linear-gradient)"/><path d="M276.0264,332.4434q-.1128,0-.2256-.0044a5.9994,5.9994,0,0,1-5.62-4.6353L244.0615,215.6045l-18.1592,46.0088a5.9994,5.9994,0,0,1-5.581,3.7973H95.2178a6,6,0,0,1,0-12H216.2393l23.7236-60.1059a6,6,0,0,1,11.4248.8423L276.875,303.6353l26.6143-85.042a6.0006,6.0006,0,0,1,11.5517.3525l12.958,52.4268,10.4785-21.0674a5.999,5.999,0,0,1,5.3721-3.3281h66.1885a6,6,0,0,1,0,12H347.5664l-16.1,32.3691a6,6,0,0,1-11.1963-1.2324l-11.7334-47.47L281.751,328.2354A6.0011,6.0011,0,0,1,276.0264,332.4434Z" style="fill:#3e5f60"/></g></svg>