<svg id="Layer_1" data-name="Layer 1" xmlns="http://www.w3.org/2000/svg" xmlns:xlink="http://www.w3.org/1999/xlink" viewBox="0 0 1240 854"><defs><style>.cls-1{fill:url(#radial-gradient);}.cls-2{fill:url(#radial-gradient-2);}.cls-3{fill:url(#linear-gradient);}.cls-4{fill:#fff;}.cls-5{fill:url(#linear-gradient-2);}.cls-6{fill:url(#radial-gradient-3);}.cls-7{fill:url(#radial-gradient-4);}</style><radialGradient id="radial-gradient" cx="853.17" cy="114.95" r="96.02" gradientUnits="userSpaceOnUse"><stop offset="0" stop-color="#ffd4d4"/><stop offset="0.23" stop-color="#fbcccd"/><stop offset="0.61" stop-color="#8a0016"/><stop offset="0.65" stop-color="#8f0118"/><stop offset="0.7" stop-color="#9d051d"/><stop offset="0.75" stop-color="#b40a26"/><stop offset="0.81" stop-color="#d51232"/><stop offset="0.87" stop-color="#ff1c41"/></radialGradient><radialGradient id="radial-gradient-2" cx="285.04" cy="276.18" r="244.16" xlink:href="#radial-gradient"/><linearGradient id="linear-gradient" x1="434.42" y1="707.08" x2="758.86" y2="145.13" gradientUnits="userSpaceOnUse"><stop offset="0" stop-color="#47c5ff"/><stop offset="1" stop-color="#d4ecff"/></linearGradient><linearGradient id="linear-gradient-2" x1="473.04" y1="657.69" x2="733.52" y2="206.52" xlink:href="#linear-gradient"/><radialGradient id="radial-gradient-3" cx="865.86" cy="682.47" r="147.78" xlink:href="#radial-gradient"/><radialGradient id="radial-gradient-4" cx="1093.92" cy="402.13" r="71.49" xlink:href="#radial-gradient"/></defs><path class="cls-1" d="M820.21,201.31c.66-1.14-.18-3-2.06-5.07a9.55,9.55,0,0,1-1-11.15l2.42-4.18a4.18,4.18,0,0,1,5.36-1.66c1.26.56,2.55,1.09,3.85,1.57a4.19,4.19,0,0,1,2.66,5,8,8,0,0,1-6.81,6c-1.67.15-2.79.64-3,1.45-.48,1.78,3.57,4.41,9,5.87s10.29,1.22,10.77-.56c.21-.81-.51-1.79-1.87-2.76a8,8,0,0,1-2.93-8.58l0,0a4.18,4.18,0,0,1,4.79-3c1.36.23,2.73.41,4.12.56a4.18,4.18,0,0,1,3.81,4.12v4.89a9.55,9.55,0,0,1-6.49,9.14c-2.66.85-4.31,2-4.31,3.35,0,2.63,6.55,4.76,14.64,4.76s14.64-2.13,14.64-4.76c0-1.31-1.66-2.5-4.32-3.35a9.56,9.56,0,0,1-6.48-9.14v-4.89a4.17,4.17,0,0,1,3.81-4.12c1.38-.15,2.76-.33,4.12-.56a4.2,4.2,0,0,1,4.79,3v0a8,8,0,0,1-2.92,8.58c-1.37,1-2.09,1.95-1.87,2.76.47,1.78,5.29,2,10.76.56s9.52-4.09,9-5.87c-.22-.81-1.34-1.3-3-1.45a8,8,0,0,1-6.82-6h0a4.17,4.17,0,0,1,2.65-5c1.3-.49,2.58-1,3.84-1.59a4.17,4.17,0,0,1,5.37,1.66l2.43,4.2a9.55,9.55,0,0,1-1.05,11.15c-1.88,2.07-2.72,3.93-2.06,5.07,1.31,2.27,8.06.84,15.06-3.2s11.61-9.17,10.29-11.44c-.65-1.14-2.68-1.34-5.41-.75a9.55,9.55,0,0,1-10.18-4.67L893.45,177a4.18,4.18,0,0,1,1.21-5.46q1.68-1.25,3.27-2.58a4.2,4.2,0,0,1,5.67.18l0,.06a8,8,0,0,1,1.75,8.88c-.7,1.53-.83,2.74-.24,3.33,1.3,1.3,5.6-.89,9.61-4.9s6.2-8.3,4.89-9.61c-.59-.59-1.8-.45-3.32.25a8,8,0,0,1-8.89-1.76l-.05-.05a4.18,4.18,0,0,1-.18-5.66c.89-1.07,1.75-2.15,2.57-3.27a4.2,4.2,0,0,1,5.47-1.22l4.21,2.43a9.56,9.56,0,0,1,4.66,10.18c-.59,2.74-.39,4.76.75,5.42,2.28,1.31,7.4-3.3,11.44-10.3s5.48-13.74,3.2-15.06c-1.14-.65-3,.19-5.07,2.06a9.53,9.53,0,0,1-11.15,1l-4.19-2.42a4.18,4.18,0,0,1-1.67-5.37c.57-1.27,1.1-2.55,1.59-3.85a4.2,4.2,0,0,1,5-2.65h0a8,8,0,0,1,6,6.82c.16,1.67.65,2.79,1.45,3,1.78.48,4.41-3.57,5.88-9s1.21-10.29-.57-10.77c-.81-.22-1.79.51-2.76,1.87a8,8,0,0,1-8.57,2.93l-.06,0a4.19,4.19,0,0,1-3-4.79c.22-1.36.41-2.73.55-4.12a4.18,4.18,0,0,1,4.13-3.81h4.89a9.54,9.54,0,0,1,9.13,6.48c.86,2.67,2,4.32,3.36,4.32,2.63,0,4.76-6.55,4.76-14.64s-2.13-14.64-4.76-14.64c-1.32,0-2.5,1.65-3.36,4.32a9.54,9.54,0,0,1-9.13,6.48h-4.89a4.18,4.18,0,0,1-4.13-3.81c-.14-1.39-.33-2.76-.55-4.12a4.19,4.19,0,0,1,3-4.79h.06A8,8,0,0,1,934,101.3c1,1.36,2,2.09,2.76,1.87,1.78-.47,2-5.3.57-10.77s-4.1-9.52-5.88-9c-.8.22-1.29,1.33-1.45,3a8,8,0,0,1-6,6.82h0a4.2,4.2,0,0,1-5-2.65c-.49-1.3-1-2.58-1.59-3.85a4.18,4.18,0,0,1,1.67-5.37l4.19-2.42a9.55,9.55,0,0,1,11.15,1c2.08,1.88,3.93,2.72,5.07,2.06,2.28-1.32.85-8.06-3.2-15.06s-9.16-11.61-11.44-10.3c-1.14.66-1.34,2.68-.75,5.42a9.55,9.55,0,0,1-4.66,10.18l-4.21,2.43a4.2,4.2,0,0,1-5.47-1.22c-.82-1.11-1.68-2.2-2.57-3.27a4.18,4.18,0,0,1,.18-5.66l.05,0a8,8,0,0,1,8.89-1.76c1.52.7,2.73.84,3.32.25,1.31-1.3-.88-5.61-4.89-9.61s-8.31-6.2-9.61-4.9c-.59.59-.46,1.81.24,3.33a8,8,0,0,1-1.75,8.89l0,0a4.2,4.2,0,0,1-5.67.18q-1.59-1.34-3.27-2.58a4.18,4.18,0,0,1-1.21-5.46l2.43-4.21A9.55,9.55,0,0,1,906.06,44c2.73.6,4.76.39,5.41-.74,1.32-2.28-3.29-7.4-10.29-11.45s-13.75-5.47-15.06-3.19c-.66,1.14.18,3,2.06,5.06a9.55,9.55,0,0,1,1.05,11.15L886.8,49a4.19,4.19,0,0,1-5.37,1.67c-1.26-.57-2.54-1.1-3.84-1.6a4.17,4.17,0,0,1-2.65-5h0a8,8,0,0,1,6.82-6c1.66-.16,2.78-.65,3-1.46.47-1.77-3.57-4.41-9-5.87s-10.29-1.21-10.76.57c-.22.8.5,1.78,1.87,2.75a8,8,0,0,1,2.92,8.58v.06a4.2,4.2,0,0,1-4.79,3c-1.36-.23-2.74-.41-4.12-.56A4.17,4.17,0,0,1,857,41.07V36.18a9.53,9.53,0,0,1,6.48-9.13c2.66-.86,4.32-2,4.32-3.36,0-2.63-6.56-4.76-14.64-4.76s-14.64,2.13-14.64,4.76c0,1.32,1.65,2.5,4.31,3.36a9.53,9.53,0,0,1,6.49,9.13V41.1a4.19,4.19,0,0,1-3.78,4.12c-1.37.17-2.73.38-4.08.62a4.19,4.19,0,0,1-4.84-3l0-.16a8,8,0,0,1,2.93-8.58c1.36-1,2.08-1.95,1.87-2.75-.48-1.78-5.3-2-10.77-.57s-9.52,4.1-9,5.87c.21.81,1.33,1.3,3,1.46a8,8,0,0,1,6.81,6l.05.18a4.18,4.18,0,0,1-2.67,5c-1.3.47-2.59,1-3.85,1.52a4.2,4.2,0,0,1-5.34-1.68l-2.47-4.3a9.55,9.55,0,0,1,1-11.15c1.88-2.07,2.72-3.92,2.06-5.06-1.31-2.28-8.05-.85-15.05,3.19S793.54,41,794.86,43.24c.66,1.13,2.68,1.34,5.41.74a9.57,9.57,0,0,1,10.19,4.67l2.47,4.28a4.19,4.19,0,0,1-1.24,5.47c-1.11.82-2.2,1.67-3.27,2.54a4.18,4.18,0,0,1-5.65-.19l-.09-.08a8,8,0,0,1-1.75-8.89c.7-1.52.83-2.74.24-3.33-1.3-1.3-5.6.89-9.61,4.9s-6.19,8.31-4.89,9.61c.59.59,1.8.45,3.32-.25a8,8,0,0,1,8.89,1.76l0,0a4.18,4.18,0,0,1,.18,5.66q-1.33,1.59-2.58,3.27a4.18,4.18,0,0,1-5.46,1.22l-4.2-2.43a9.54,9.54,0,0,1-4.67-10.18c.59-2.74.39-4.76-.75-5.42-2.28-1.31-7.4,3.3-11.44,10.3s-5.47,13.74-3.2,15.06c1.14.66,3-.18,5.07-2.06a9.55,9.55,0,0,1,11.15-1l4.19,2.42a4.18,4.18,0,0,1,1.67,5.36c-.56,1.26-1.09,2.55-1.58,3.85a4.19,4.19,0,0,1-5,2.67h0a8,8,0,0,1-6-6.82c-.15-1.67-.64-2.78-1.45-3-1.78-.48-4.41,3.57-5.88,9s-1.21,10.3.57,10.77c.81.22,1.79-.51,2.76-1.87a8,8,0,0,1,8.57-2.93l.07,0a4.19,4.19,0,0,1,3,4.8c-.23,1.36-.42,2.73-.56,4.11a4.18,4.18,0,0,1-4.13,3.81h-4.89a9.55,9.55,0,0,1-9.13-6.48c-.85-2.67-2-4.32-3.36-4.32-2.62,0-4.76,6.56-4.76,14.64s2.14,14.64,4.76,14.64c1.32,0,2.51-1.65,3.36-4.32a9.55,9.55,0,0,1,9.13-6.48h4.93a4.18,4.18,0,0,1,4.12,3.82q.21,2.07.54,4.11a4.19,4.19,0,0,1-3,4.79l-.08,0a8,8,0,0,1-8.57-2.93c-1-1.36-2-2.09-2.76-1.87-1.78.48-2,5.3-.57,10.77s4.1,9.52,5.88,9c.81-.21,1.3-1.33,1.45-3a8,8,0,0,1,6-6.82l.1,0a4.19,4.19,0,0,1,5,2.69c.47,1.31,1,2.6,1.51,3.87a4.19,4.19,0,0,1-1.68,5.33L783,151a9.53,9.53,0,0,1-11.15-1c-2.08-1.87-3.93-2.71-5.07-2.06C764.54,149.22,766,156,770,163s9.16,11.61,11.44,10.3c1.14-.66,1.34-2.68.75-5.42a9.55,9.55,0,0,1,4.67-10.18l4.2-2.42a4.17,4.17,0,0,1,5.46,1.22c.83,1.12,1.68,2.21,2.57,3.28a4.18,4.18,0,0,1-.18,5.66l0,0a8,8,0,0,1-8.89,1.76c-1.52-.7-2.73-.84-3.32-.25-1.3,1.31.89,5.61,4.89,9.61s8.31,6.2,9.61,4.9c.59-.59.46-1.8-.24-3.33a8,8,0,0,1,1.75-8.88l.05,0a4.17,4.17,0,0,1,5.65-.19c1.07.88,2.16,1.74,3.28,2.56a4.17,4.17,0,0,1,1.23,5.47l-2.43,4.21a9.57,9.57,0,0,1-10.19,4.67c-2.73-.59-4.75-.39-5.41.75-1.32,2.27,3.29,7.4,10.3,11.44S818.9,203.58,820.21,201.31Zm77.51-9.19c3.17-1.83,6.22-2.48,6.82-1.45s-1.5,3.35-4.67,5.18-6.22,2.48-6.81,1.45S894.55,194,897.72,192.12Zm32.62-32.62c1.83-3.17,4.14-5.25,5.18-4.66s.38,3.65-1.45,6.82-4.15,5.26-5.18,4.66S928.51,162.67,930.34,159.5Zm14.09-51.18c1.19,0,2.15,3,2.15,6.63s-1,6.63-2.15,6.63-2.16-3-2.16-6.63S943.24,108.32,944.43,108.32ZM928.89,63.58c1-.59,3.35,1.49,5.18,4.66s2.48,6.22,1.45,6.82-3.35-1.49-5.18-4.66S927.86,64.18,928.89,63.58Zm-29-29.53c3.17,1.83,5.26,4.15,4.67,5.18s-3.65.38-6.82-1.45-5.26-4.15-4.66-5.18S896.7,32.22,899.87,34.05Zm-91.26,3.73c-3.17,1.83-6.22,2.48-6.81,1.45s1.49-3.35,4.66-5.18,6.22-2.48,6.81-1.45S811.78,36,808.61,37.78ZM776,70.4c-1.83,3.17-4.15,5.25-5.18,4.66s-.39-3.65,1.44-6.82,4.15-5.25,5.18-4.66S777.83,67.23,776,70.4Zm-14.1,51.18c-1.19,0-2.15-3-2.15-6.63s1-6.63,2.15-6.63,2.16,3,2.16,6.63S763.09,121.58,761.9,121.58Zm15.54,44.74c-1,.6-3.34-1.49-5.18-4.66s-2.47-6.22-1.44-6.82,3.35,1.49,5.18,4.66S778.48,165.73,777.44,166.32Zm29,29.53c-3.17-1.83-5.26-4.15-4.66-5.18s3.64-.38,6.81,1.45,5.26,4.15,4.66,5.18S809.63,197.68,806.46,195.85Zm53.33,10.36c0,1.19-3,2.16-6.62,2.16s-6.63-1-6.63-2.16,3-2.15,6.63-2.15S859.79,205,859.79,206.21Zm-11.56-29.34c-6.18,0-11.18-3.12-11.18-7s5-7,11.18-7,11.19,3.13,11.19,7S854.41,176.87,848.23,176.87Zm45.23-14.65c-4.37,4.37-10.12,5.7-12.84,3s-1.39-8.47,3-12.84,10.11-5.7,12.84-3S897.83,157.85,893.46,162.22Zm14.65-53.52c3.85,0,7,5,7,11.19s-3.12,11.18-7,11.18-7-5-7-11.18S904.26,108.7,908.11,108.7Zm-20.51-37c2.72-2.72,8.47-1.39,12.84,3s5.7,10.11,3,12.84-8.47,1.39-12.84-3S884.88,74.4,887.6,71.68ZM875.06,95.83c4.32-1.66,9.62,1.66,11.84,7.43s.52,11.78-3.8,13.45-9.62-1.66-11.84-7.43S870.74,97.5,875.06,95.83Zm-.48,40.65c1.34,4.42-2.36,9.47-8.27,11.26s-11.79-.34-13.14-4.77,2.36-9.47,8.27-11.26S873.23,132.05,874.58,136.48Zm-28-112.79c0-1.19,3-2.16,6.63-2.16s6.62,1,6.62,2.16-3,2.15-6.62,2.15S846.54,24.88,846.54,23.69ZM858.1,53c6.18,0,11.19,3.13,11.19,7s-5,7-11.19,7-11.18-3.12-11.18-7S851.92,53,858.1,53Zm-14,27.83c5.91-1.79,11.79.35,13.14,4.78S854.87,95.11,849,96.9s-11.79-.34-13.14-4.77S838.18,82.66,844.09,80.86Zm-7,40.91c2.22,5.76.52,11.79-3.8,13.45s-9.62-1.66-11.84-7.42-.52-11.79,3.8-13.45S834.88,116,837.1,121.77ZM812.87,67.68c4.37-4.37,10.12-5.7,12.84-3s1.39,8.47-3,12.84-10.11,5.7-12.83,3S808.51,72.05,812.87,67.68ZM798.22,121.2c-3.85,0-7-5-7-11.18s3.12-11.19,7-11.19,7,5,7,11.19S802.07,121.2,798.22,121.2Zm7.67,34c-4.36-4.36-5.7-10.11-3-12.84s8.47-1.38,12.83,3,5.71,10.12,3,12.84S810.26,159.61,805.89,155.24Z"/><path class="cls-2" d="M517.09,239c-3.35,0-6.36,4.21-8.54,11-3.19,9.94-12.77,16.48-23.22,16.48H472.89a10.62,10.62,0,0,1-10.48-9.69q-.56-5.28-1.41-10.47a10.64,10.64,0,0,1,7.61-12.18l.15,0c8.09-2.17,16.95.6,21.8,7.43,2.46,3.48,5,5.32,7,4.76,4.52-1.21,5.17-13.47,1.44-27.38s-10.41-24.2-14.94-23c-2.05.55-3.29,3.39-3.69,7.63-.78,8.34-7.07,15.17-15.16,17.34h0a10.65,10.65,0,0,1-12.67-6.74c-1.25-3.31-2.61-6.57-4-9.78a10.62,10.62,0,0,1,4.23-13.65l10.68-6.17a24.27,24.27,0,0,1,28.35,2.67c5.27,4.78,10,6.91,12.88,5.24,5.79-3.35,2.15-20.49-8.13-38.29s-23.3-29.53-29.09-26.19c-2.9,1.68-3.41,6.82-1.91,13.78,2.21,10.21-2.82,20.66-11.86,25.88l-10.71,6.19a10.65,10.65,0,0,1-13.89-3.1q-3.15-4.26-6.54-8.31a10.63,10.63,0,0,1,.46-14.4l.13-.13c5.92-5.93,15-8,22.6-4.47,3.87,1.78,6.95,2.13,8.45.62,3.31-3.31-2.26-14.25-12.44-24.43s-21.13-15.76-24.44-12.45c-1.5,1.51-1.16,4.58.62,8.45,3.5,7.62,1.46,16.68-4.46,22.6l-.13.14a10.65,10.65,0,0,1-14.4.45q-4.06-3.39-8.32-6.54a10.65,10.65,0,0,1-3.09-13.89l6.18-10.7c5.22-9,15.67-14.08,25.88-11.87,7,1.5,12.1,1,13.78-1.91C436.64,88,424.92,75,407.11,64.73s-34.94-13.92-38.28-8.13c-1.68,2.9.46,7.61,5.23,12.88,7,7.74,7.89,19.31,2.67,28.36l-6.16,10.67a10.63,10.63,0,0,1-13.66,4.23c-3.21-1.44-6.47-2.8-9.78-4A10.65,10.65,0,0,1,340.39,96v0c2.17-8.09,9-14.39,17.35-15.17,4.23-.39,7.07-1.64,7.63-3.69,1.21-4.52-9.09-11.21-23-14.94S316.2,59.12,315,63.64c-.55,2.06,1.29,4.55,4.76,7,6.83,4.85,9.6,13.71,7.43,21.81l0,.14A10.64,10.64,0,0,1,315,100.21q-5.19-.85-10.47-1.4a10.63,10.63,0,0,1-9.69-10.49V75.88c0-10.44,6.54-20,16.48-23.22,6.78-2.18,11-5.19,11-8.54,0-6.68-16.67-12.1-37.22-12.1s-37.23,5.42-37.23,12.1c0,3.35,4.21,6.36,11,8.54,9.94,3.19,16.48,12.78,16.48,23.22V88.41a10.65,10.65,0,0,1-9.6,10.47c-3.49.42-6.95,1-10.38,1.57A10.63,10.63,0,0,1,243,92.86l-.11-.4c-2.17-8.1.6-17,7.43-21.81,3.48-2.46,5.32-5,4.76-7-1.21-4.52-13.47-5.17-27.38-1.44s-24.2,10.42-23,14.94c.55,2,3.39,3.3,7.63,3.69,8.34.78,15.17,7.08,17.34,15.17l.12.46a10.63,10.63,0,0,1-6.81,12.7c-3.3,1.2-6.57,2.48-9.78,3.87a10.65,10.65,0,0,1-13.56-4.27l-6.31-10.92c-5.22-9-4.35-20.62,2.67-28.36,4.77-5.27,6.91-10,5.23-12.88-3.34-5.79-20.48-2.15-38.28,8.13S133.43,88,136.77,93.82c1.68,2.9,6.82,3.41,13.78,1.91,10.21-2.21,20.66,2.82,25.88,11.87l6.29,10.88a10.63,10.63,0,0,1-3.14,13.91q-4.26,3.12-8.32,6.46a10.64,10.64,0,0,1-14.36-.48l-.23-.23c-5.92-5.92-7.95-15-4.46-22.6,1.78-3.86,2.12-6.94.62-8.45-3.31-3.31-14.25,2.26-24.44,12.45S112.64,140.66,116,144c1.5,1.51,4.58,1.16,8.45-.62,7.62-3.49,16.68-1.46,22.6,4.47l.12.12a10.63,10.63,0,0,1,.46,14.4c-2.26,2.7-4.45,5.48-6.54,8.31a10.64,10.64,0,0,1-13.89,3.1l-10.69-6.17c-9-5.23-14.08-15.68-11.87-25.89,1.5-7,1-12.1-1.91-13.78-5.79-3.34-18.81,8.39-29.09,26.19S59.67,189,65.46,192.39c2.9,1.67,7.61-.46,12.88-5.24a24.27,24.27,0,0,1,28.35-2.67l10.66,6.15a10.64,10.64,0,0,1,4.24,13.63q-2.15,4.83-4,9.81a10.63,10.63,0,0,1-12.68,6.76h0c-8.1-2.17-14.39-9-15.17-17.34-.39-4.24-1.64-7.08-3.69-7.63-4.52-1.21-11.21,9.08-14.94,23S68,245,72.5,246.22c2,.56,4.55-1.28,7-4.76,4.85-6.83,13.71-9.6,21.81-7.43l.16,0a10.65,10.65,0,0,1,7.6,12.2c-.57,3.46-1,6.94-1.42,10.46a10.63,10.63,0,0,1-10.49,9.68H84.74c-10.44,0-20-6.54-23.22-16.48-2.18-6.77-5.19-11-8.54-11-6.68,0-12.1,16.67-12.1,37.23S46.3,313.4,53,313.4c3.35,0,6.36-4.2,8.54-11,3.19-9.94,12.78-16.48,23.22-16.48H97.26a10.63,10.63,0,0,1,10.49,9.71c.35,3.51.81,7,1.36,10.45a10.65,10.65,0,0,1-7.6,12.17l-.19.05c-8.1,2.17-17-.6-21.81-7.43-2.46-3.47-5-5.31-7-4.76-4.52,1.21-5.17,13.47-1.44,27.38s10.42,24.21,14.94,23c2-.55,3.3-3.39,3.69-7.63.78-8.34,7.07-15.18,15.17-17.34l.26-.08a10.62,10.62,0,0,1,12.71,6.84q1.78,5,3.85,9.85a10.66,10.66,0,0,1-4.28,13.54l-10.71,6.18a24.28,24.28,0,0,1-28.35-2.66c-5.27-4.78-10-6.91-12.88-5.24-5.79,3.34-2.15,20.48,8.13,38.28s23.3,29.53,29.09,26.19c2.9-1.67,3.41-6.82,1.91-13.78-2.21-10.2,2.82-20.66,11.87-25.88l10.67-6.16a10.64,10.64,0,0,1,13.9,3.1q3.14,4.27,6.53,8.33a10.64,10.64,0,0,1-.46,14.39l-.1.1c-5.92,5.92-15,8-22.6,4.46-3.87-1.78-7-2.12-8.45-.62-3.31,3.31,2.26,14.25,12.44,24.44s21.13,15.75,24.44,12.44c1.5-1.5,1.16-4.58-.62-8.45-3.49-7.61-1.46-16.68,4.46-22.6l.11-.1a10.65,10.65,0,0,1,14.38-.48q4.07,3.38,8.34,6.5A10.63,10.63,0,0,1,182.62,434l-6.19,10.72a24.28,24.28,0,0,1-25.88,11.87c-7-1.51-12.1-1-13.78,1.9-3.34,5.79,8.38,18.81,26.19,29.09s34.94,13.92,38.28,8.13c1.68-2.9-.46-7.61-5.23-12.88a24.27,24.27,0,0,1-2.67-28.35l6.13-10.62a10.64,10.64,0,0,1,13.63-4.24c3.22,1.44,6.49,2.77,9.81,4a10.65,10.65,0,0,1,6.77,12.68h0c-2.17,8.09-9,14.38-17.34,15.16-4.24.4-7.08,1.64-7.63,3.69-1.21,4.53,9.08,11.21,23,14.94s26.17,3.08,27.38-1.44c.56-2-1.28-4.55-4.76-7-6.83-4.84-9.6-13.71-7.43-21.8l0-.15a10.65,10.65,0,0,1,12.18-7.61q5.19.86,10.47,1.41A10.62,10.62,0,0,1,275.27,464v12.44c0,10.45-6.54,20-16.48,23.22-6.77,2.18-11,5.19-11,8.54,0,6.69,16.67,12.1,37.23,12.1s37.22-5.41,37.22-12.1c0-3.35-4.2-6.36-11-8.54-9.94-3.19-16.48-12.77-16.48-23.22V464a10.62,10.62,0,0,1,9.69-10.48q5.28-.56,10.47-1.41a10.65,10.65,0,0,1,12.18,7.61l0,.15c2.17,8.09-.6,17-7.43,21.8-3.47,2.46-5.31,5-4.76,7,1.21,4.52,13.47,5.17,27.38,1.44s24.21-10.41,23-14.94c-.56-2-3.4-3.29-7.63-3.69-8.35-.78-15.18-7.07-17.35-15.16v0a10.65,10.65,0,0,1,6.74-12.67c3.31-1.25,6.57-2.61,9.78-4.05a10.63,10.63,0,0,1,13.66,4.23l6.16,10.68c5.22,9.05,4.35,20.61-2.66,28.35-4.78,5.27-6.92,10-5.24,12.88,3.34,5.79,20.48,2.15,38.28-8.13s29.53-23.3,26.19-29.09c-1.68-2.9-6.82-3.41-13.78-1.9-10.2,2.2-20.66-2.83-25.88-11.87l-6.18-10.71a10.65,10.65,0,0,1,3.09-13.89q4.26-3.15,8.32-6.54a10.63,10.63,0,0,1,14.4.46l.13.13c5.92,5.92,8,15,4.46,22.6-1.78,3.87-2.12,6.95-.62,8.45,3.31,3.31,14.25-2.26,24.44-12.44s15.75-21.13,12.44-24.44c-1.5-1.5-4.58-1.16-8.45.62-7.61,3.5-16.68,1.46-22.6-4.46l-.13-.13a10.63,10.63,0,0,1-.46-14.4q3.39-4.06,6.54-8.31a10.64,10.64,0,0,1,13.89-3.1l10.71,6.18c9,5.22,14.07,15.68,11.86,25.88-1.5,7-1,12.11,1.91,13.78,5.79,3.34,18.81-8.38,29.09-26.19s13.92-34.94,8.13-38.28c-2.9-1.68-7.61.46-12.88,5.24a24.28,24.28,0,0,1-28.35,2.66l-10.68-6.16a10.63,10.63,0,0,1-4.23-13.66c1.44-3.21,2.8-6.47,4-9.78a10.65,10.65,0,0,1,12.67-6.74h0c8.09,2.16,14.38,9,15.16,17.34.4,4.24,1.64,7.08,3.69,7.63,4.53,1.21,11.21-9.09,14.94-23s3.08-26.17-1.44-27.38c-2.05-.55-4.55,1.29-7,4.76-4.85,6.83-13.71,9.6-21.8,7.43l-.15,0A10.64,10.64,0,0,1,461,306.1q.86-5.19,1.41-10.47a10.62,10.62,0,0,1,10.48-9.69h12.44c10.45,0,20,6.54,23.22,16.48,2.18,6.78,5.19,11,8.54,11,6.68,0,12.1-16.67,12.1-37.22S523.77,239,517.09,239Zm-39.51-93.39c2.62-1.52,8.51,3.79,13.17,11.85s6.3,15.82,3.68,17.33-8.52-3.79-13.17-11.85S475,147.07,477.58,145.56ZM403.8,70.47c8.06,4.65,13.37,10.55,11.86,13.17s-9.28,1-17.34-3.68S385,69.41,386.47,66.79,395.74,65.81,403.8,70.47ZM171.75,80c-8.06,4.65-15.82,6.3-17.34,3.68s3.8-8.52,11.86-13.17,15.82-6.3,17.33-3.68S179.81,75.3,171.75,80ZM88.82,162.89c-4.66,8.06-10.55,13.37-13.17,11.85s-1-9.27,3.68-17.33S89.88,144,92.5,145.56,93.47,154.83,88.82,162.89ZM53,293c-3,0-5.48-7.55-5.48-16.85S50,259.33,53,259.33s5.48,7.54,5.48,16.85S56,293,53,293ZM92.5,406.8c-2.62,1.51-8.52-3.8-13.17-11.86S73,379.12,75.65,377.61s8.51,3.79,13.17,11.86S95.12,405.28,92.5,406.8Zm73.77,75.09c-8.06-4.66-13.37-10.55-11.85-13.17s9.27-1,17.33,3.68S185.12,483,183.6,485.57,174.33,486.54,166.27,481.89Zm232.05-9.49c8.06-4.66,15.82-6.3,17.34-3.68s-3.8,8.51-11.86,13.17-15.82,6.3-17.33,3.68S390.26,477.05,398.32,472.4ZM268.18,44.12c0-3,7.55-5.48,16.86-5.48s16.85,2.46,16.85,5.48S294.34,49.6,285,49.6,268.18,47.15,268.18,44.12Zm29.41,74.62c15.7,0,28.43,7.94,28.43,17.73s-12.73,17.72-28.43,17.72-28.44-7.93-28.44-17.72S281.88,118.74,297.59,118.74ZM262,189.5c15-4.56,30,.87,33.4,12.13s-6,24.09-21,28.65-30-.87-33.4-12.13S246.93,194.06,262,189.5ZM182.59,156c11.1-11.11,25.72-14.5,32.64-7.58s3.53,21.54-7.58,32.65-25.72,14.5-32.64,7.57S171.48,167.08,182.59,156ZM145.33,292.07c-9.79,0-17.73-12.74-17.73-28.44s7.94-28.44,17.73-28.44,17.72,12.73,17.72,28.44S155.12,292.07,145.33,292.07Zm52.15,94.13c-6.92,6.93-21.54,3.53-32.64-7.57s-14.5-25.72-7.58-32.65,21.54-3.53,32.65,7.58S204.4,379.28,197.48,386.2Zm37-58.48c-11,4.23-24.46-4.22-30.11-18.88s-1.32-30,9.66-34.2,24.46,4.22,30.11,18.88S245.5,323.48,234.52,327.72Zm67.37,180.51c0,3-7.55,5.48-16.85,5.48s-16.86-2.45-16.86-5.48,7.55-5.48,16.86-5.48S301.89,505.2,301.89,508.23Zm-29.4-74.62c-15.71,0-28.44-7.93-28.44-17.72s12.73-17.73,28.44-17.73,28.44,7.94,28.44,17.73S288.19,433.61,272.49,433.61Zm46-74.05c-15,4.56-30-.87-33.4-12.13s6-24.09,21-28.65,30,.87,33.4,12.13S333.48,355,318.45,359.56Zm12.6-97.79c-5.65-14.66-1.32-30,9.66-34.2s24.46,4.22,30.11,18.87,1.32,30-9.66,34.2S336.7,276.42,331.05,261.77Zm56.44,134.61c-11.11,11.1-25.72,14.49-32.65,7.57s-3.53-21.54,7.58-32.64,25.72-14.5,32.64-7.58S398.59,385.27,387.49,396.38ZM380.17,198.8c-11.11-11.11-14.5-25.73-7.58-32.65s21.54-3.53,32.64,7.58,14.5,25.72,7.58,32.64S391.27,209.9,380.17,198.8Zm44.58,118.37c-9.79,0-17.73-12.74-17.73-28.44s7.94-28.44,17.73-28.44,17.72,12.73,17.72,28.44S434.54,317.17,424.75,317.17Zm56.51,72.3c4.65-8.07,10.55-13.37,13.17-11.86s1,9.27-3.68,17.33-10.55,13.37-13.17,11.86S476.6,397.53,481.26,389.47ZM517.09,293c-3,0-5.48-7.55-5.48-16.85s2.46-16.85,5.48-16.85,5.48,7.54,5.48,16.85S520.11,293,517.09,293Z"/><path class="cls-3" d="M622.77,808.86a45,45,0,0,1-22.62-6.1L479.31,732.49A271,271,0,0,1,344.56,498.24V250.92a41.3,41.3,0,0,1,34.13-40.59C498,188.88,565.17,144.77,594.62,120.4a44.08,44.08,0,0,1,56.3,0c29.44,24.37,96.65,68.48,215.92,89.93A41.3,41.3,0,0,1,901,250.92V498.24c0,6.83-.35,14.22-1.07,22.58a14.6,14.6,0,0,1-14.63,13.42h0a14.67,14.67,0,0,1-4.31-.65,51.18,51.18,0,0,0-15.1-2.14c-7.3,0-13.69,1.1-18.49,3.18a15.47,15.47,0,0,1-17.71-3.86,15.56,15.56,0,0,1-3.86-12.07A193.27,193.27,0,0,0,827,497.84V277.45c-99.41-21.7-165.37-58-204.21-85.81C583.9,219.46,518,255.76,418.57,277.45V497.84a197.66,197.66,0,0,0,98,170.29l106.23,61.79,72-41.85a14.91,14.91,0,0,1,21.91,9.1c1.62,6.08,4.28,10.15,7.11,10.89L731,710l4.45,16-5.31,5.36a6.91,6.91,0,0,0-1.72,3.13,16.9,16.9,0,0,0,.32,7.35,15.69,15.69,0,0,1-7.46,16.84l-75.87,44.12A45,45,0,0,1,622.77,808.86Z"/><path class="cls-4" d="M622.77,123.24a31.1,31.1,0,0,1,19.86,7.17c30.94,25.62,100.11,70.81,221.91,92.72A28.3,28.3,0,0,1,888,250.92V498.24c0,7.21-.41,14.36-1,21.47a1.66,1.66,0,0,1-1.67,1.53,1.81,1.81,0,0,1-.51-.08,64.08,64.08,0,0,0-18.9-2.71c-9.55,0-17.45,1.56-23.66,4.25a2.54,2.54,0,0,1-1,.22,2.5,2.5,0,0,1-2.46-2.81A205.75,205.75,0,0,0,840,497.84V272.48a6.89,6.89,0,0,0-5.49-6.71c-103-21.76-169.78-59.45-207.66-87.24a6.85,6.85,0,0,0-8.11,0C580.85,206.31,514.1,244,411.07,265.77a6.9,6.9,0,0,0-5.5,6.71V497.84A210.71,210.71,0,0,0,510,679.37L619.32,743a6.85,6.85,0,0,0,6.89,0l75-43.64a1.87,1.87,0,0,1,1-.26,2,2,0,0,1,1.87,1.47c2.89,10.88,8.54,18.06,16.38,20.12l.43,1.53a19.89,19.89,0,0,0-5,8.89c-1.15,4.29-.8,8.9.15,13.42a2.73,2.73,0,0,1-1.27,2.93l-75.87,44.12a32,32,0,0,1-32.16,0L485.85,721.25a258,258,0,0,1-128.29-223V250.92A28.3,28.3,0,0,1,381,223.13c121.8-21.91,191-67.1,221.91-92.72a31.1,31.1,0,0,1,19.86-7.17m0-26a57.25,57.25,0,0,0-36.44,13.14C557.86,134,492.74,176.61,376.4,197.54a54.28,54.28,0,0,0-44.83,53.38V498.24A284,284,0,0,0,472.78,743.73L593.62,814a58,58,0,0,0,58.3,0l75.87-44.12a28.66,28.66,0,0,0,13.64-30.75q-.07-.35-.12-.63l8.65-8.74-4-14.53-.18-.64-.25-.91-4-14.41-11.51-3a20,20,0,0,1-.79-2.41,27.92,27.92,0,0,0-41-17l-65.42,38-99.7-58a184.61,184.61,0,0,1-91.49-159v-210c89.85-21,152-53.63,191.19-80.34,39.17,26.71,101.37,59.37,191.21,80.34v210a180.08,180.08,0,0,1-1.08,19.45,28.48,28.48,0,0,0,39.66,29.27c1.82-.79,6-2.11,13.32-2.11A38.08,38.08,0,0,1,877.18,546a27.69,27.69,0,0,0,35.68-24.09c.75-8.73,1.12-16.49,1.12-23.7V250.92a54.28,54.28,0,0,0-44.83-53.38C752.8,176.61,687.67,134,659.21,110.38a57.25,57.25,0,0,0-36.44-13.14Z"/><path class="cls-5" d="M510.35,678.74a209.92,209.92,0,0,1-104.06-180.9V267.56l10.22-2.24c97.7-21.4,162-57.16,198.7-83.38l7.55-5.39,7.56,5.39c36.74,26.23,101,62,198.72,83.38l10.21,2.24V497.84a199.55,199.55,0,0,1-3.43,35.32,15.9,15.9,0,0,1-15.65,13.14,15.71,15.71,0,0,1-5.67-1.06,10,10,0,0,0-3.63-.6c-5.27,0-12.75,2.57-20.53,7-13.38,7.72-19.13,16.37-17.89,20.93l4.66,17.16L759.35,589h-.75c-1.37,0-3.19.08-3.78.11l-.35,0h-.35c-5.34,0-12.81,7-19,17.81-5.49,9.47-8.05,18.49-6.69,23.58a6.85,6.85,0,0,0,1.68,3.05l5.53,5.5-2.72,9-2.25,7.4L723.07,657c-5,1-7.94,12.51-8.23,22.81a18.44,18.44,0,0,1-9.12,15.42l-82.91,48.89ZM642,552.16V478.78h73.38V440.41H642V367H603.59v73.38H530.2v38.37h73.39v73.38Z"/><path class="cls-4" d="M622.76,192.52c38.89,27.76,104.67,63.85,203.49,85.5V497.84a187.12,187.12,0,0,1-3.22,33,3,3,0,0,1-2.86,2.43,2.73,2.73,0,0,1-1-.18,22.77,22.77,0,0,0-8.33-1.48c-10.3,0-21.35,5.52-27,8.77-18.23,10.52-27.11,24-24,35.61-.39,0-.83,0-1.29,0-2.05,0-4.49.14-4.49.14-14.19,0-25.08,15.26-30.3,24.32-4.33,7.47-11.09,21.75-8,33.42a19.89,19.89,0,0,0,5.07,8.92l-.46,1.52c-16.24,3.35-18.37,26.78-18.6,35.17a5.54,5.54,0,0,1-2.74,4.59l-76.35,45L516.88,667.51a196.93,196.93,0,0,1-97.59-169.67V278c98.84-21.66,164.61-57.74,203.47-85.5m-96,299.26h63.81v63.81a9.56,9.56,0,0,0,9.57,9.57h45.22a9.57,9.57,0,0,0,9.58-9.57V491.78h63.8a9.58,9.58,0,0,0,9.58-9.57V437a9.58,9.58,0,0,0-9.58-9.57H655V363.6a9.57,9.57,0,0,0-9.58-9.57H600.16a9.56,9.56,0,0,0-9.57,9.57v63.81H526.78A9.58,9.58,0,0,0,517.2,437v45.23a9.58,9.58,0,0,0,9.58,9.57m96-331.21-15.11,10.79c-35.72,25.52-98.37,60.33-193.92,81.26l-20.44,4.48V497.84A223,223,0,0,0,503.81,690l105.88,61.59,13.16,7.65L636,751.49l76.35-45a31.31,31.31,0,0,0,15.51-26.24A42.22,42.22,0,0,1,729.54,669l11.29-2.32,4.5-14.79.33-1.1.14-.46,4.52-14.94-9.17-9.12c.38-2.35,1.78-6.93,5.16-12.76l0,0,0,0c4.08-7.08,7.65-10.35,9.12-11.33h.07c.67,0,2.12-.1,3.07-.1h.23l35.48,1.51-8.59-31.6c1.2-1.66,4.23-5,11.12-9,6.06-3.48,11.27-5.15,13.73-5.28a28.48,28.48,0,0,0,9.59,1.65,28.88,28.88,0,0,0,28.45-23.86,211.74,211.74,0,0,0,3.63-37.6V257.1l-20.43-4.48c-95.52-20.92-158.19-55.74-194-81.26l-15.11-10.79ZM616.59,380H629v73.38h73.38v12.37H629v73.38H616.59V465.78H543.2V453.41h73.39V380Z"/><path class="cls-6" d="M1006.31,659.94c-2,0-3.85,2.54-5.16,6.64a14.71,14.71,0,0,1-14.06,10h-7.53a6.42,6.42,0,0,1-6.34-5.86c-.23-2.14-.51-4.25-.86-6.34A6.46,6.46,0,0,1,977,657l.09,0a12.28,12.28,0,0,1,13.2,4.5c1.49,2.1,3,3.21,4.24,2.88,2.74-.73,3.13-8.15.87-16.57s-6.3-14.65-9-13.92c-1.24.33-2,2-2.24,4.62A12.26,12.26,0,0,1,974.92,649h0a6.45,6.45,0,0,1-7.67-4.08q-1.14-3-2.45-5.92a6.44,6.44,0,0,1,2.56-8.27L973.8,627A14.7,14.7,0,0,1,991,628.58c3.2,2.9,6,4.19,7.8,3.17,3.5-2,1.3-12.39-4.92-23.17s-14.11-17.87-17.61-15.85c-1.75,1-2.06,4.13-1.15,8.34a14.71,14.71,0,0,1-7.18,15.67l-6.48,3.74A6.45,6.45,0,0,1,953,618.6q-1.9-2.57-4-5a6.42,6.42,0,0,1,.28-8.71l.08-.08a12.26,12.26,0,0,1,13.68-2.7c2.34,1.07,4.2,1.28,5.11.37,2-2-1.37-8.62-7.53-14.79s-12.79-9.53-14.79-7.53c-.91.91-.7,2.77.37,5.12a12.25,12.25,0,0,1-2.7,13.67l-.08.08a6.42,6.42,0,0,1-8.71.28q-2.46-2.06-5-4a6.45,6.45,0,0,1-1.88-8.41l3.74-6.47a14.7,14.7,0,0,1,15.67-7.19c4.21.91,7.32.6,8.34-1.15,2-3.5-5.08-11.39-15.85-17.61s-21.15-8.42-23.17-4.92c-1,1.75.27,4.61,3.17,7.8a14.7,14.7,0,0,1,1.61,17.16L917.63,581a6.44,6.44,0,0,1-8.27,2.56q-2.91-1.31-5.92-2.45a6.45,6.45,0,0,1-4.08-7.67v0a12.26,12.26,0,0,1,10.49-9.17c2.57-.24,4.29-1,4.62-2.24.73-2.74-5.5-6.78-13.92-9s-15.84-1.87-16.57.87c-.33,1.24.78,2.75,2.88,4.24a12.28,12.28,0,0,1,4.5,13.2l0,.09A6.45,6.45,0,0,1,884,576c-2.09-.35-4.2-.63-6.34-.86a6.42,6.42,0,0,1-5.86-6.34v-7.53a14.71,14.71,0,0,1,10-14.06c4.1-1.31,6.64-3.14,6.64-5.16,0-4-10.09-7.33-22.53-7.33S843.33,538,843.33,542c0,2,2.55,3.85,6.65,5.16a14.71,14.71,0,0,1,10,14.06v7.58a6.44,6.44,0,0,1-5.81,6.34c-2.11.25-4.21.57-6.28,1a6.43,6.43,0,0,1-7.44-4.59l-.07-.25a12.3,12.3,0,0,1,4.5-13.2c2.1-1.49,3.22-3,2.88-4.24-.73-2.74-8.15-3.13-16.57-.87s-14.65,6.3-13.92,9c.33,1.24,2,2,4.62,2.24a12.26,12.26,0,0,1,10.49,9.17l.08.28a6.44,6.44,0,0,1-4.12,7.69c-2,.73-4,1.5-5.92,2.34a6.44,6.44,0,0,1-8.21-2.58l-3.82-6.61A14.69,14.69,0,0,1,812,557.37c2.89-3.19,4.18-6,3.17-7.8-2-3.5-12.4-1.3-23.18,4.92S774.1,568.6,776.12,572.1c1,1.75,4.13,2.06,8.34,1.15a14.7,14.7,0,0,1,15.67,7.19l3.8,6.58a6.43,6.43,0,0,1-1.9,8.42q-2.56,1.89-5,3.91a6.44,6.44,0,0,1-8.7-.29l-.13-.14a12.25,12.25,0,0,1-2.7-13.67c1.07-2.35,1.28-4.21.37-5.12-2-2-8.62,1.37-14.79,7.53s-9.53,12.79-7.53,14.79c.91.91,2.78.7,5.12-.37a12.27,12.27,0,0,1,13.68,2.7l.07.07a6.44,6.44,0,0,1,.27,8.72c-1.37,1.64-2.69,3.31-4,5a6.42,6.42,0,0,1-8.4,1.87l-6.47-3.73a14.7,14.7,0,0,1-7.19-15.67c.91-4.21.6-7.32-1.15-8.34-3.5-2-11.39,5.08-17.61,15.85s-8.42,21.15-4.92,23.17c1.75,1,4.61-.27,7.8-3.17A14.7,14.7,0,0,1,757.92,627l6.45,3.72a6.44,6.44,0,0,1,2.56,8.25q-1.29,2.92-2.42,5.94a6.43,6.43,0,0,1-7.67,4.09h0a12.26,12.26,0,0,1-9.18-10.49c-.24-2.57-1-4.29-2.24-4.62-2.74-.73-6.78,5.5-9,13.92s-1.87,15.84.87,16.57c1.25.33,2.76-.78,4.25-2.88a12.26,12.26,0,0,1,13.19-4.5l.1,0a6.42,6.42,0,0,1,4.6,7.38q-.51,3.14-.86,6.33a6.43,6.43,0,0,1-6.34,5.86h-7.53a14.71,14.71,0,0,1-14.06-10c-1.31-4.1-3.14-6.64-5.16-6.64-4,0-7.33,10.09-7.33,22.53S721.36,705,725.41,705c2,0,3.85-2.54,5.16-6.64a14.71,14.71,0,0,1,14.06-10h7.58a6.42,6.42,0,0,1,6.34,5.87c.22,2.13.49,4.24.83,6.33a6.45,6.45,0,0,1-4.6,7.37l-.12,0a12.26,12.26,0,0,1-13.19-4.5c-1.49-2.1-3-3.22-4.25-2.88-2.74.73-3.13,8.15-.87,16.57s6.3,14.65,9,13.92c1.25-.33,2-2.05,2.24-4.62A12.26,12.26,0,0,1,756.81,716l.16-.05a6.43,6.43,0,0,1,7.69,4.14c.72,2,1.49,4,2.33,6a6.47,6.47,0,0,1-2.59,8.2L757.92,738a14.7,14.7,0,0,1-17.16-1.61c-3.19-2.9-6-4.19-7.8-3.17-3.5,2-1.3,12.39,4.92,23.17s14.11,17.87,17.61,15.85c1.75-1,2.06-4.13,1.15-8.34a14.7,14.7,0,0,1,7.19-15.67l6.46-3.73a6.45,6.45,0,0,1,8.41,1.88q1.9,2.58,3.95,5a6.42,6.42,0,0,1-.28,8.7l0,.06a12.27,12.27,0,0,1-13.68,2.7c-2.34-1.07-4.21-1.28-5.12-.37-2,2,1.37,8.62,7.53,14.79s12.79,9.53,14.79,7.53c.91-.91.7-2.77-.37-5.12a12.25,12.25,0,0,1,2.7-13.67l.06-.07a6.44,6.44,0,0,1,8.7-.28q2.48,2,5.05,3.93a6.43,6.43,0,0,1,1.89,8.42l-3.74,6.48a14.7,14.7,0,0,1-15.67,7.19c-4.21-.91-7.32-.6-8.34,1.15-2,3.5,5.08,11.39,15.85,17.61s21.15,8.42,23.18,4.92c1-1.75-.28-4.61-3.17-7.8a14.69,14.69,0,0,1-1.62-17.16l3.71-6.42a6.43,6.43,0,0,1,8.25-2.57q2.92,1.3,5.94,2.43a6.43,6.43,0,0,1,4.09,7.67h0a12.26,12.26,0,0,1-10.49,9.18c-2.57.24-4.29,1-4.62,2.24-.73,2.74,5.5,6.78,13.92,9s15.84,1.87,16.57-.87c.34-1.24-.78-2.76-2.88-4.24a12.3,12.3,0,0,1-4.5-13.2l0-.09a6.45,6.45,0,0,1,7.38-4.61q3.13.53,6.34.85a6.44,6.44,0,0,1,5.86,6.35v7.53a14.71,14.71,0,0,1-10,14.06c-4.1,1.31-6.65,3.14-6.65,5.16,0,4.05,10.09,7.33,22.53,7.33s22.53-3.28,22.53-7.33c0-2-2.54-3.85-6.64-5.16a14.71,14.71,0,0,1-10-14.06v-7.53a6.44,6.44,0,0,1,5.86-6.35q3.21-.33,6.34-.85a6.45,6.45,0,0,1,7.38,4.61l0,.09a12.28,12.28,0,0,1-4.5,13.2c-2.1,1.48-3.21,3-2.88,4.24.73,2.74,8.15,3.13,16.57.87s14.65-6.3,13.92-9c-.33-1.25-2.05-2-4.62-2.24a12.26,12.26,0,0,1-10.49-9.18h0a6.45,6.45,0,0,1,4.08-7.67q3-1.14,5.92-2.45a6.44,6.44,0,0,1,8.27,2.56l3.73,6.46a14.7,14.7,0,0,1-1.61,17.16c-2.9,3.19-4.19,6-3.17,7.8,2,3.5,12.39,1.3,23.17-4.92s17.87-14.11,15.85-17.61c-1-1.75-4.13-2.06-8.34-1.15a14.71,14.71,0,0,1-15.67-7.18L927.85,778a6.45,6.45,0,0,1,1.88-8.41q2.57-1.9,5-4a6.42,6.42,0,0,1,8.71.28l.08.08a12.25,12.25,0,0,1,2.7,13.67c-1.07,2.35-1.28,4.21-.37,5.12,2,2,8.63-1.37,14.79-7.53s9.54-12.79,7.53-14.79c-.91-.91-2.77-.7-5.11.37a12.26,12.26,0,0,1-13.68-2.7l-.08-.08a6.42,6.42,0,0,1-.28-8.71q2.06-2.46,4-5a6.45,6.45,0,0,1,8.41-1.88l6.48,3.74a14.71,14.71,0,0,1,7.18,15.67c-.91,4.21-.6,7.32,1.15,8.34,3.5,2,11.39-5.08,17.61-15.85s8.42-21.15,4.92-23.17c-1.75-1-4.6.27-7.8,3.17A14.7,14.7,0,0,1,973.8,738l-6.46-3.73a6.44,6.44,0,0,1-2.56-8.27q1.31-2.91,2.45-5.92A6.45,6.45,0,0,1,974.9,716h0a12.26,12.26,0,0,1,9.17,10.49c.24,2.57,1,4.29,2.24,4.62,2.74.73,6.78-5.5,9-13.92s1.87-15.84-.87-16.57c-1.24-.34-2.75.78-4.24,2.88a12.28,12.28,0,0,1-13.2,4.5l-.09,0a6.46,6.46,0,0,1-4.61-7.38c.35-2.09.63-4.2.86-6.34a6.42,6.42,0,0,1,6.34-5.86h7.53a14.71,14.71,0,0,1,14.06,10c1.31,4.1,3.14,6.64,5.16,6.64,4.05,0,7.33-10.09,7.33-22.53S1010.36,659.94,1006.31,659.94ZM982.4,603.41c1.58-.92,5.15,2.3,8,7.18s3.81,9.57,2.23,10.49-5.16-2.3-8-7.18S980.81,604.33,982.4,603.41Zm-55.15-47.68c.92-1.58,5.62-.58,10.5,2.23s8.09,6.39,7.17,8-5.61.59-10.49-2.22S926.34,557.32,927.25,555.73Zm-130,8c-4.88,2.81-9.57,3.81-10.49,2.22s2.3-5.15,7.18-8,9.57-3.81,10.49-2.23S802.17,560.89,797.29,563.71ZM747.1,613.9c-2.82,4.88-6.39,8.09-8,7.18s-.59-5.62,2.22-10.49,6.39-8.1,8-7.18S749.91,609,747.1,613.9Zm-21.69,78.77c-1.83,0-3.32-4.57-3.32-10.2s1.49-10.2,3.32-10.2,3.31,4.57,3.31,10.2S727.24,692.67,725.41,692.67Zm23.91,68.86c-1.58.91-5.15-2.3-8-7.18s-3.81-9.57-2.22-10.49,5.15,2.3,8,7.18S750.91,760.61,749.32,761.53Zm55.15,47.67c-.92,1.59-5.62.59-10.49-2.22s-8.09-6.39-7.18-8,5.61-.59,10.49,2.22S805.38,807.62,804.47,809.2Zm130-8c4.88-2.81,9.57-3.81,10.49-2.22s-2.3,5.15-7.17,8-9.58,3.81-10.5,2.22S929.55,804.05,934.43,801.23ZM855.66,542c0-1.83,4.57-3.32,10.2-3.32s10.2,1.49,10.2,3.32-4.57,3.31-10.2,3.31S855.66,543.85,855.66,542Zm17.8,45.16c9.5,0,17.21,4.8,17.21,10.73s-7.71,10.73-17.21,10.73-17.22-4.81-17.22-10.73S864,587.18,873.46,587.18ZM851.89,630c9.1-2.76,18.15.53,20.22,7.34s-3.63,14.58-12.73,17.34-18.14-.52-20.21-7.34S842.8,632.77,851.89,630Zm-48-20.29c6.72-6.72,15.57-8.78,19.76-4.59s2.14,13-4.59,19.76-15.56,8.78-19.75,4.59S797.13,616.44,803.85,609.72ZM781.3,692.09c-5.93,0-10.73-7.71-10.73-17.22s4.8-17.21,10.73-17.21S792,665.37,792,674.87,787.23,692.09,781.3,692.09Zm31.57,57c-4.19,4.19-13,2.14-19.76-4.58s-8.77-15.57-4.58-19.76,13-2.14,19.75,4.59S817.06,744.87,812.87,749.06Zm22.41-35.4c-6.64,2.57-14.8-2.55-18.22-11.42s-.8-18.14,5.85-20.7,14.8,2.56,18.22,11.43S841.93,711.1,835.28,713.66Zm40.78,109.26c0,1.83-4.57,3.32-10.2,3.32s-10.2-1.49-10.2-3.32,4.57-3.31,10.2-3.31S876.06,821.09,876.06,822.92Zm-17.8-45.16c-9.5,0-17.21-4.8-17.21-10.73s7.71-10.73,17.21-10.73,17.22,4.8,17.22,10.73S867.77,777.76,858.26,777.76Zm27.83-44.82c-9.1,2.76-18.15-.53-20.22-7.35s3.63-14.57,12.72-17.33,18.15.52,20.22,7.34S895.18,730.18,886.09,732.94Zm7.62-59.19c-3.42-8.87-.8-18.14,5.85-20.7s14.8,2.55,18.22,11.42.8,18.14-5.84,20.7S897.13,682.62,893.71,673.75Zm34.16,81.47c-6.72,6.72-15.57,8.78-19.76,4.59s-2.14-13,4.59-19.76,15.56-8.78,19.75-4.59S934.59,748.5,927.87,755.22Zm-4.43-119.59c-6.72-6.72-8.78-15.56-4.59-19.75s13-2.14,19.76,4.58,8.78,15.57,4.59,19.76S930.16,642.36,923.44,635.63Zm27,71.65c-5.92,0-10.73-7.71-10.73-17.21s4.81-17.22,10.73-17.22,10.73,7.71,10.73,17.22S956.35,707.28,950.42,707.28ZM984.62,751c2.82-4.88,6.39-8.09,8-7.18s.58,5.62-2.23,10.49-6.39,8.09-8,7.18S981.81,755.92,984.62,751Zm21.69-58.37c-1.83,0-3.31-4.57-3.31-10.2s1.48-10.2,3.31-10.2,3.32,4.57,3.32,10.2S1008.14,692.67,1006.31,692.67Z"/><path class="cls-7" d="M1161.87,391.23c-1,0-1.86,1.24-2.5,3.22a7.12,7.12,0,0,1-6.8,4.83h-3.64a3.11,3.11,0,0,1-3.07-2.84c-.11-1-.25-2.06-.41-3.07a3.11,3.11,0,0,1,2.22-3.57h0a5.94,5.94,0,0,1,6.38,2.18c.72,1,1.45,1.56,2.05,1.39,1.33-.35,1.52-3.94.43-8s-3-7.09-4.38-6.74c-.6.16-1,1-1.08,2.24a5.93,5.93,0,0,1-4.44,5.07h0a3.13,3.13,0,0,1-3.71-2c-.36-1-.76-1.92-1.18-2.86a3.1,3.1,0,0,1,1.24-4l3.12-1.81a7.12,7.12,0,0,1,8.3.78c1.55,1.4,2.93,2,3.78,1.54,1.69-1,.63-6-2.38-11.21s-6.83-8.65-8.52-7.67c-.85.49-1,2-.56,4a7.12,7.12,0,0,1-3.48,7.58l-3.13,1.81a3.12,3.12,0,0,1-4.07-.9c-.61-.83-1.25-1.65-1.91-2.44a3.1,3.1,0,0,1,.13-4.21l0,0a5.94,5.94,0,0,1,6.62-1.31c1.13.52,2,.62,2.47.18,1-1-.66-4.17-3.64-7.15s-6.19-4.62-7.16-3.65c-.44.44-.34,1.35.18,2.48a5.94,5.94,0,0,1-1.3,6.62l0,0a3.12,3.12,0,0,1-4.22.14q-1.18-1-2.43-1.92a3.1,3.1,0,0,1-.91-4.06l1.81-3.14a7.1,7.1,0,0,1,7.58-3.47c2,.44,3.54.29,4-.56,1-1.7-2.45-5.51-7.66-8.52s-10.24-4.08-11.21-2.38c-.49.85.13,2.23,1.53,3.77a7.11,7.11,0,0,1,.78,8.3L1119,353a3.12,3.12,0,0,1-4,1.24c-.94-.42-1.9-.82-2.87-1.19a3.11,3.11,0,0,1-2-3.71h0a6,6,0,0,1,5.08-4.45c1.24-.11,2.07-.48,2.23-1.08.36-1.32-2.66-3.28-6.73-4.37s-7.66-.9-8,.42c-.16.6.38,1.33,1.39,2.05a5.93,5.93,0,0,1,2.18,6.39v0a3.12,3.12,0,0,1-3.57,2.23c-1-.17-2-.31-3.06-.41a3.12,3.12,0,0,1-2.84-3.07v-3.65a7.11,7.11,0,0,1,4.83-6.8c2-.63,3.21-1.51,3.21-2.49,0-2-4.88-3.55-10.9-3.55s-10.9,1.59-10.9,3.55c0,1,1.23,1.86,3.22,2.49a7.12,7.12,0,0,1,4.82,6.8v3.67a3.12,3.12,0,0,1-2.81,3.07c-1,.12-2,.28-3,.46a3.12,3.12,0,0,1-3.6-2.22l0-.12a5.94,5.94,0,0,1,2.18-6.39c1-.72,1.55-1.45,1.39-2.05-.35-1.32-3.94-1.51-8-.42s-7.09,3-6.73,4.37c.16.6,1,1,2.23,1.08a5.94,5.94,0,0,1,5.08,4.45l0,.13a3.12,3.12,0,0,1-2,3.72c-1,.35-1.92.73-2.86,1.13a3.12,3.12,0,0,1-4-1.25l-1.85-3.2a7.11,7.11,0,0,1,.78-8.3c1.4-1.54,2-2.92,1.54-3.77-1-1.7-6-.63-11.22,2.38s-8.64,6.82-7.66,8.52c.49.85,2,1,4,.56a7.1,7.1,0,0,1,7.58,3.47L1064,356A3.11,3.11,0,0,1,1063,360q-1.24.92-2.43,1.89a3.11,3.11,0,0,1-4.21-.14l-.06-.06a5.92,5.92,0,0,1-1.31-6.62c.52-1.13.62-2,.18-2.48-1-1-4.17.67-7.16,3.65s-4.61,6.18-3.64,7.15c.44.44,1.34.34,2.48-.18a5.93,5.93,0,0,1,6.61,1.31l0,0a3.12,3.12,0,0,1,.13,4.22c-.66.79-1.3,1.6-1.91,2.44a3.13,3.13,0,0,1-4.07.9l-3.13-1.81a7.12,7.12,0,0,1-3.48-7.58c.44-2,.29-3.54-.55-4-1.7-1-5.51,2.45-8.52,7.67s-4.08,10.23-2.38,11.21c.84.49,2.22-.14,3.77-1.53a7.11,7.11,0,0,1,8.3-.79l3.12,1.81a3.11,3.11,0,0,1,1.24,4c-.42.94-.81,1.9-1.17,2.87a3.12,3.12,0,0,1-3.71,2h0a5.93,5.93,0,0,1-4.44-5.07c-.11-1.24-.48-2.08-1.08-2.24-1.32-.35-3.28,2.66-4.37,6.74s-.91,7.66.42,8c.6.17,1.33-.37,2-1.39a6,6,0,0,1,6.39-2.18l0,0a3.11,3.11,0,0,1,2.23,3.57q-.26,1.51-.42,3.06a3.11,3.11,0,0,1-3.07,2.84h-3.64a7.12,7.12,0,0,1-6.8-4.83c-.64-2-1.52-3.22-2.5-3.22-2,0-3.54,4.88-3.54,10.9S1024,413,1026,413c1,0,1.86-1.23,2.5-3.21a7.12,7.12,0,0,1,6.8-4.83h3.67a3.11,3.11,0,0,1,3.07,2.84c.1,1,.23,2.06.4,3.07a3.12,3.12,0,0,1-2.23,3.56l0,0a6,6,0,0,1-6.39-2.18c-.72-1-1.45-1.56-2-1.4-1.33.36-1.52,4-.42,8s3,7.09,4.37,6.74c.6-.17,1-1,1.08-2.24a6,6,0,0,1,4.44-5.08l.08,0a3.11,3.11,0,0,1,3.72,2c.35,1,.72,1.93,1.13,2.88a3.11,3.11,0,0,1-1.26,4L1041.7,429a7.09,7.09,0,0,1-8.3-.78c-1.55-1.4-2.93-2-3.77-1.53-1.7,1-.63,6,2.38,11.21s6.82,8.65,8.52,7.67c.84-.49,1-2,.55-4a7.12,7.12,0,0,1,3.48-7.58l3.12-1.8a3.12,3.12,0,0,1,4.07.91c.62.83,1.26,1.65,1.92,2.44a3.11,3.11,0,0,1-.14,4.21l0,0a5.94,5.94,0,0,1-6.61,1.31c-1.14-.52-2-.62-2.48-.18-1,1,.66,4.17,3.64,7.15s6.19,4.61,7.16,3.64c.44-.44.34-1.34-.18-2.47a5.92,5.92,0,0,1,1.31-6.62l0,0a3.12,3.12,0,0,1,4.21-.14c.79.66,1.6,1.3,2.44,1.91a3.11,3.11,0,0,1,.91,4.07l-1.81,3.14a7.1,7.1,0,0,1-7.58,3.47c-2-.44-3.54-.29-4,.56-1,1.69,2.45,5.51,7.66,8.52s10.24,4.07,11.22,2.38c.49-.85-.14-2.23-1.54-3.77a7.11,7.11,0,0,1-.78-8.3l1.8-3.11a3.1,3.1,0,0,1,4-1.24c.94.41,1.9.81,2.87,1.17a3.12,3.12,0,0,1,2,3.71,5.92,5.92,0,0,1-5.08,4.44c-1.24.12-2.07.48-2.23,1.09-.36,1.32,2.66,3.28,6.73,4.37s7.67.9,8-.42c.16-.6-.38-1.33-1.39-2.06a5.92,5.92,0,0,1-2.18-6.38v0a3.12,3.12,0,0,1,3.57-2.23c1,.17,2,.3,3.06.41a3.11,3.11,0,0,1,2.84,3.07v3.64a7.1,7.1,0,0,1-4.82,6.8c-2,.64-3.22,1.52-3.22,2.5,0,2,4.88,3.55,10.9,3.55s10.9-1.59,10.9-3.55c0-1-1.23-1.86-3.21-2.5a7.09,7.09,0,0,1-4.83-6.8v-3.64a3.11,3.11,0,0,1,2.84-3.07c1-.11,2.05-.24,3.06-.41a3.12,3.12,0,0,1,3.57,2.23v0a5.92,5.92,0,0,1-2.17,6.38c-1,.73-1.56,1.46-1.4,2.06.36,1.32,4,1.51,8,.42s7.09-3.05,6.73-4.37c-.16-.61-1-1-2.23-1.09a5.94,5.94,0,0,1-5.08-4.44h0a3.11,3.11,0,0,1,2-3.71c1-.37,1.93-.77,2.87-1.19a3.12,3.12,0,0,1,4,1.24l1.8,3.13a7.11,7.11,0,0,1-.78,8.3c-1.4,1.54-2,2.92-1.53,3.77,1,1.69,6,.63,11.21-2.38s8.64-6.83,7.66-8.52c-.49-.85-2-1-4-.56a7.1,7.1,0,0,1-7.58-3.47l-1.81-3.14a3.1,3.1,0,0,1,.91-4.06q1.25-.93,2.43-1.92a3.12,3.12,0,0,1,4.22.13l0,0a5.94,5.94,0,0,1,1.3,6.62c-.52,1.13-.62,2-.18,2.47,1,1,4.18-.66,7.16-3.64s4.61-6.18,3.64-7.15c-.44-.44-1.34-.34-2.47.18a6,6,0,0,1-6.62-1.31l0,0a3.1,3.1,0,0,1-.13-4.21c.66-.8,1.3-1.61,1.91-2.44a3.12,3.12,0,0,1,4.07-.91l3.13,1.81a7.12,7.12,0,0,1,3.48,7.58c-.44,2-.29,3.55.56,4,1.69,1,5.51-2.46,8.52-7.67s4.07-10.23,2.38-11.21c-.85-.49-2.23.13-3.78,1.53a7.09,7.09,0,0,1-8.3.78l-3.12-1.8a3.11,3.11,0,0,1-1.24-4c.42-.94.82-1.9,1.18-2.86a3.12,3.12,0,0,1,3.71-2h0a6,6,0,0,1,4.44,5.08c.12,1.24.48,2.07,1.08,2.24,1.33.35,3.28-2.66,4.38-6.74s.9-7.66-.43-8c-.6-.16-1.33.38-2.05,1.4a5.94,5.94,0,0,1-6.38,2.18l0,0a3.11,3.11,0,0,1-2.22-3.56c.16-1,.3-2,.41-3.07a3.11,3.11,0,0,1,3.07-2.84h3.64a7.12,7.12,0,0,1,6.8,4.83c.64,2,1.52,3.21,2.5,3.21,2,0,3.54-4.88,3.54-10.9S1163.83,391.23,1161.87,391.23Zm-11.57-27.34c.77-.45,2.49,1.11,3.86,3.47s1.84,4.63,1.07,5.07-2.49-1.11-3.85-3.47S1149.53,364.33,1150.3,363.89Zm-21.6-22c2.36,1.36,3.91,3.09,3.47,3.86s-2.72.28-5.08-1.08-3.91-3.09-3.47-3.86S1126.34,340.54,1128.7,341.9Zm-68,2.78c-2.36,1.36-4.63,1.84-5.08,1.08s1.11-2.5,3.47-3.86,4.64-1.85,5.08-1.08S1063.11,343.32,1060.75,344.68ZM1036.46,369c-1.36,2.36-3.08,3.92-3.85,3.47s-.29-2.71,1.08-5.07,3.09-3.92,3.85-3.47S1037.83,366.6,1036.46,369ZM1026,407.07c-.88,0-1.6-2.21-1.6-4.94s.72-4.93,1.6-4.93,1.61,2.21,1.61,4.93S1026.86,407.07,1026,407.07Zm11.57,33.31c-.76.44-2.49-1.11-3.85-3.47s-1.85-4.63-1.08-5.07,2.49,1.11,3.85,3.47S1038.31,439.94,1037.54,440.38Zm21.6,22c-2.36-1.36-3.91-3.09-3.47-3.86s2.72-.28,5.08,1.08,3.91,3.09,3.47,3.86S1061.5,463.73,1059.14,462.37Zm67.95-2.78c2.36-1.36,4.64-1.85,5.08-1.08s-1.11,2.5-3.47,3.86-4.63,1.84-5.08,1.08S1124.73,461,1127.09,459.59ZM1089,334.19c0-.89,2.21-1.61,4.93-1.61s4.94.72,4.94,1.61-2.21,1.6-4.94,1.6S1089,335.07,1089,334.19ZM1097.6,356c4.59,0,8.32,2.33,8.32,5.19s-3.73,5.2-8.32,5.2-8.33-2.33-8.33-5.2S1093,356,1097.6,356Zm-10.44,20.72c4.41-1.33,8.78.26,9.78,3.56s-1.75,7.05-6.15,8.39-8.78-.26-9.78-3.56S1082.76,378.09,1087.16,376.75Zm-23.24-9.81c3.25-3.25,7.53-4.25,9.56-2.22s1,6.31-2.22,9.56-7.53,4.24-9.56,2.22S1060.67,370.19,1063.92,366.94ZM1053,406.79c-2.86,0-5.19-3.73-5.19-8.33s2.33-8.33,5.19-8.33,5.19,3.73,5.19,8.33S1055.88,406.79,1053,406.79Zm15.27,27.56c-2,2-6.3,1-9.55-2.22s-4.25-7.53-2.22-9.56,6.3-1,9.56,2.22S1070.31,432.32,1068.28,434.35Zm10.85-17.12c-3.22,1.23-7.16-1.24-8.82-5.53s-.38-8.78,2.83-10,7.16,1.23,8.82,5.52S1082.34,416,1079.13,417.23Zm19.73,52.85c0,.89-2.21,1.61-4.94,1.61s-4.93-.72-4.93-1.61,2.21-1.6,4.93-1.6S1098.86,469.2,1098.86,470.08Zm-8.61-21.85c-4.6,0-8.33-2.32-8.33-5.19s3.73-5.19,8.33-5.19,8.32,2.33,8.32,5.19S1094.85,448.23,1090.25,448.23Zm13.46-21.68c-4.41,1.34-8.78-.26-9.78-3.55s1.75-7.06,6.15-8.39,8.78.25,9.78,3.55S1108.11,425.21,1103.71,426.55Zm3.69-28.64c-1.66-4.29-.39-8.77,2.82-10s7.17,1.24,8.82,5.53.39,8.77-2.83,10S1109.05,402.21,1107.4,397.91Zm16.52,39.42c-3.25,3.25-7.53,4.24-9.56,2.22s-1-6.31,2.22-9.56,7.53-4.25,9.56-2.22S1127.17,434.08,1123.92,437.33Zm-2.14-57.85c-3.26-3.26-4.25-7.54-2.22-9.56s6.3-1,9.56,2.22,4.24,7.53,2.21,9.55S1125,382.73,1121.78,379.48Zm13,34.66c-2.87,0-5.19-3.73-5.19-8.33s2.32-8.33,5.19-8.33,5.19,3.73,5.19,8.33S1137.7,414.14,1134.83,414.14Zm16.55,21.17c1.36-2.36,3.09-3.92,3.85-3.47s.29,2.71-1.07,5.07-3.09,3.91-3.86,3.47S1150,437.67,1151.38,435.31Zm10.49-28.24c-.89,0-1.6-2.21-1.6-4.94s.71-4.93,1.6-4.93,1.6,2.21,1.6,4.93S1162.76,407.07,1161.87,407.07Z"/></svg>