<svg xmlns="http://www.w3.org/2000/svg" xmlns:xlink="http://www.w3.org/1999/xlink" aria-hidden="true" role="img" class="iconify iconify--icon-park-outline" width="32" height="32" preserveAspectRatio="xMidYMid meet" viewBox="0 0 48 48"><g fill="none" stroke="currentColor" stroke-width="4"><path stroke-linejoin="round" d="M24 43h5.955c.083-2.737.484-4.242 1.204-4.515C38.669 35.635 44 28.434 44 20H4c0 8.251 5.103 15.323 12.357 18.294c.758.31 1.325 1.88 1.699 4.706H24Z" clip-rule="evenodd"></path><path stroke-linecap="round" d="M14.443 27.023c.36 1.187.836 2.168 1.427 2.942a11.253 11.253 0 0 0 2.14 2.104m7.204-12.043a3301.104 3301.104 0 0 0 6.622-13.708c1.05-2.21 3.18-2.742 5.145-1.902c1.965.84 2.76 3.242 1.935 4.917c-.51 1.034-2.24 4.591-5.19 10.671"></path></g></svg>