<?xml version="1.0" encoding="utf-8"?>
<!-- Svg Vector Icons : http://www.onlinewebfonts.com/icon -->
<!DOCTYPE svg PUBLIC "-//W3C//DTD SVG 1.1//EN" "http://www.w3.org/Graphics/SVG/1.1/DTD/svg11.dtd">
<svg version="1.1" xmlns="http://www.w3.org/2000/svg" xmlns:xlink="http://www.w3.org/1999/xlink" x="0px" y="0px" viewBox="0 0 1000 1000" enable-background="new 0 0 1000 1000" xml:space="preserve">
<metadata> Svg Vector Icons : http://www.onlinewebfonts.com/icon </metadata>
<g><path d="M500,10C173.3,10,10,173.3,10,500c0,326.7,163.3,490,490,490c326.6,0,490-163.3,490-490C990,173.3,826.6,10,500,10z M880.4,543.8c-43.8-0.9-89.4-0.5-133.5-0.1c-40.2,0.3-81.8,0.7-122.4,0.1c-8.1-0.1-15.3-5.4-17.7-13.2c-3.9-12.2-7.4-24.7-10.9-37.1c-3.8-13.6-7.5-26.9-11.7-39.5c-25.8,51.5-39.7,126.1-51.2,188.3c-4.3,23.1-8.3,45-12.7,64.4c-1.9,8.6-9.6,14.8-18.5,14.8c-0.1,0-0.3,0-0.4,0c-9-0.2-16.6-6.7-18.2-15.5c-9-49.2-15.1-104.8-21-158.6c-7.3-66.5-14.8-134.6-27.8-192.4c-9.5,27.1-16.8,56.2-23.9,84.6c-7.8,31-15.8,63.1-26.6,91.9c-2.8,7.6-9.8,12.7-18.3,12.3c-57.8-1.6-108.5-1.1-157.6-0.5c-28.5,0.3-56.9,0.6-86.5,0.5c-10.4-0.1-18.9-8.5-18.9-19c0-10.4,8.5-18.9,18.9-18.9c3.8,0.5,7.3,0,11,0c25.6,0,50.3-0.3,75.1-0.5c45.5-0.5,92.4-1,145.3,0.2c7.8-23.4,14.2-48.7,20.8-75.2c12.1-48.4,24.7-98.5,48.1-141.2c3.6-6.6,10.5-10.4,18.3-9.8c7.5,0.7,13.9,5.7,16.3,12.8c23.5,69.6,33.6,161.8,43.4,251c1.6,14.9,3.3,29.8,5,44.8c14-70.4,32.4-142.1,68.3-187.4c4-5.1,10.5-7.8,16.9-7.1c6.5,0.7,12.1,4.7,15,10.5c12.1,24.8,19.8,52.5,27.3,79.2c2.1,7.6,4.3,15.2,6.5,22.8c35.7,0.4,72.2,0,107.7-0.3c44.4-0.4,90.3-0.8,134.7,0.1c10.4,0.2,18.7,8.9,18.5,19.3C899.5,535.7,890.9,543.6,880.4,543.8z"/></g>
</svg>