<svg id="Layer_1" data-name="Layer 1" xmlns="http://www.w3.org/2000/svg" viewBox="0 0 122.18 108.61"><defs><style>.cls-1{fill:#01b5e6;}.cls-1,.cls-2,.cls-3,.cls-4,.cls-5{fill-rule:evenodd;}.cls-2{fill:#d92d27;}.cls-3{fill:#de5149;}.cls-4{fill:#fccb64;}.cls-5{fill:#fcd582;}</style></defs><title>medicines</title><path class="cls-1" d="M118.19,33.5A16.34,16.34,0,0,1,94.93,56.37L118.19,33.5Z"/><path class="cls-1" d="M90.05,40a16.35,16.35,0,0,1,26.26-8.32L93.11,54.45A16.36,16.36,0,0,1,90.05,40Z"/><path class="cls-1" d="M75.1,88a16.35,16.35,0,0,1,26.26-8.32l-23.19,22.8A16.32,16.32,0,0,1,75.1,88Z"/><path class="cls-2" d="M53.65,11.94A16.16,16.16,0,0,1,73.39.55h0A16.16,16.16,0,0,1,84.78,20.29c-2.52,9.42-5,18.79-7.58,28.17L62.76,44.59V38.65A9.45,9.45,0,0,0,60,32l0,0a9.48,9.48,0,0,0-6.69-2.78h-4.2q2.28-8.58,4.59-17.21Z"/><path class="cls-3" d="M58.25,4.33A16.21,16.21,0,0,1,65.79.38L57.08,30a9.41,9.41,0,0,0-3.82-.81H49.12l5.44-18.42h0a15.78,15.78,0,0,1,3.69-6.4Z"/><path class="cls-4" d="M74.42,52.6Q71.07,65,67.76,77.36h0A16.09,16.09,0,0,1,48.11,88.7h0A16.09,16.09,0,0,1,37,78a9.63,9.63,0,0,0,3.21-2.11l0,0A9.48,9.48,0,0,0,43,69.19V58.94H53.26A9.45,9.45,0,0,0,60,56.15l0,0a9.5,9.5,0,0,0,2.79-6.65L74.42,52.6Z"/><path class="cls-5" d="M37.47,77.81a9.44,9.44,0,0,0,2.72-1.9l0,0A9.48,9.48,0,0,0,43,69.19V58.94h5.55L41.09,84.28a15.71,15.71,0,0,1-3.62-6.47Z"/><path class="cls-1" d="M103.24,81.57A16.34,16.34,0,0,1,80,104.44l23.26-22.87Z"/><path class="cls-2" d="M22.57,15.93H33.65a3.79,3.79,0,0,1,3.77,3.77v15h15a3.78,3.78,0,0,1,3.77,3.76V49.58a3.79,3.79,0,0,1-3.77,3.77h-15v15a3.79,3.79,0,0,1-3.77,3.77H22.57a3.79,3.79,0,0,1-3.77-3.77v-15h-15A3.79,3.79,0,0,1,0,49.58V38.5a3.79,3.79,0,0,1,3.77-3.77h15v-15a3.78,3.78,0,0,1,3.76-3.77Z"/></svg>