<?xml version="1.0" standalone="no"?>
<!DOCTYPE svg PUBLIC "-//W3C//DTD SVG 20010904//EN"
 "http://www.w3.org/TR/2001/REC-SVG-20010904/DTD/svg10.dtd">
<svg version="1.0" xmlns="http://www.w3.org/2000/svg"
 width="705.000000pt" height="705.000000pt" viewBox="0 0 705.000000 705.000000"
 preserveAspectRatio="xMidYMid meet">

<g transform="translate(0.000000,705.000000) scale(0.100000,-0.100000)"
fill="#000000" stroke="none">
<path d="M3450 4817 c-162 -89 -219 -186 -220 -375 0 -85 16 -159 40 -187 26
-30 37 -55 44 -107 4 -26 18 -68 32 -92 23 -41 24 -48 13 -90 -11 -44 -49 -86
-78 -86 -6 0 -34 46 -62 103 -99 198 -198 325 -318 406 -81 55 -183 103 -224
105 -32 1 -32 0 -35 -49 -10 -160 68 -520 164 -752 l35 -83 -1 -249 c-1 -241
-14 -405 -40 -495 -7 -21 -28 -57 -49 -80 -78 -87 -235 -281 -367 -453 -14
-18 -28 -33 -33 -33 -6 0 -60 39 -152 109 -15 11 -29 34 -32 51 -8 38 -27 38
-55 0 -13 -17 -28 -30 -36 -30 -7 0 -19 -11 -26 -25 -17 -33 -35 -32 -77 5
-63 56 -73 29 -16 -45 20 -26 39 -62 42 -79 5 -21 22 -42 56 -68 48 -36 53
-38 128 -38 42 0 77 -3 77 -6 0 -4 -18 -24 -40 -46 -22 -23 -43 -52 -47 -66
-5 -23 -2 -38 21 -93 5 -12 -6 -19 -51 -33 -88 -27 -201 -87 -244 -128 -132
-128 62 -264 501 -352 339 -68 623 -91 1135 -91 505 1 758 21 1095 86 460 90
657 222 528 356 -34 36 -183 114 -251 132 -36 9 -40 8 -90 -33 -53 -43 -149
-102 -244 -150 -94 -47 -71 -27 37 32 117 64 240 158 258 197 24 53 15 90 -33
142 l-46 48 84 5 c79 5 87 7 130 43 30 24 50 50 56 72 5 19 23 52 40 72 29 35
41 73 23 73 -4 0 -23 -13 -42 -30 -43 -36 -55 -37 -76 -5 -9 14 -23 25 -31 25
-7 0 -22 14 -31 30 -21 38 -44 35 -57 -7 -8 -23 -31 -47 -82 -82 -39 -28 -74
-55 -78 -61 -14 -23 -36 -5 -103 83 -81 109 -245 309 -312 384 -29 32 -51 68
-59 95 -24 89 -41 307 -41 523 0 364 -18 392 -281 441 -181 33 -228 60 -243
142 -4 24 1 46 19 82 13 26 27 68 31 92 8 48 18 74 44 103 53 61 53 295 0 395
-50 94 -156 169 -248 177 -38 3 -66 -1 -82 -10z m-250 -961 c0 -2 -7 -6 -15
-10 -8 -3 -15 -1 -15 4 0 6 7 10 15 10 8 0 15 -2 15 -4z m-86 -857 c3 -17 6
-46 6 -64 0 -18 7 -52 15 -75 31 -88 13 -170 -65 -299 -31 -53 -42 -83 -48
-135 -7 -52 -14 -72 -35 -94 -16 -16 -27 -39 -27 -55 0 -31 5 -31 -125 -12
-55 8 -119 15 -142 15 -28 0 -43 4 -43 13 0 6 31 35 67 62 97 72 232 209 290
292 55 78 53 72 79 326 6 63 18 74 28 26z m856 -47 c0 -84 22 -218 41 -254 47
-89 209 -256 352 -362 52 -39 49 -56 -10 -56 -27 0 -92 -7 -147 -15 -54 -8
-102 -12 -107 -9 -5 3 -9 17 -9 32 0 15 -12 38 -27 54 -21 22 -28 42 -35 94
-5 47 -16 80 -37 113 -40 61 -78 147 -86 192 -4 23 0 60 11 100 9 35 19 82 21
104 10 107 33 111 33 7z"/>
<path d="M4436 4504 c-126 -30 -285 -128 -374 -230 -86 -97 -245 -376 -226
-394 5 -4 54 -15 109 -24 158 -27 243 -65 266 -118 6 -16 15 -28 19 -28 4 0
44 32 89 72 l81 71 45 140 c25 77 52 179 61 226 15 87 21 272 9 291 -7 12 -4
12 -79 -6z"/>
</g>
</svg>
