<?xml version="1.0" standalone="no"?>
<!DOCTYPE svg PUBLIC "-//W3C//DTD SVG 20010904//EN"
 "http://www.w3.org/TR/2001/REC-SVG-20010904/DTD/svg10.dtd">
<svg version="1.0" xmlns="http://www.w3.org/2000/svg"
 width="732.000000pt" height="549.000000pt" viewBox="0 0 732.000000 549.000000"
 preserveAspectRatio="xMidYMid meet">

<g transform="translate(0.000000,549.000000) scale(0.100000,-0.100000)"
fill="#000000" stroke="none">
<path d="M0 5323 c0 -153 2 -171 18 -177 38 -15 62 -31 62 -43 0 -7 8 -13 18
-13 9 0 29 -11 44 -25 18 -17 39 -25 63 -25 31 0 35 3 35 25 0 18 -5 25 -20
25 -17 0 -20 7 -20 40 0 25 5 40 13 41 6 0 2 4 -11 9 -13 6 -28 23 -33 40 -6
16 -14 30 -19 30 -4 0 -11 19 -15 43 -4 23 -9 36 -12 30 -10 -26 -21 -11 -28
36 -4 28 -13 52 -21 55 -8 3 -14 17 -14 31 0 17 -5 25 -18 25 -10 0 -23 5 -30
12 -9 9 -12 -26 -12 -159z"/>
<path d="M7311 5474 c0 -11 3 -14 6 -6 3 7 2 16 -1 19 -3 4 -6 -2 -5 -13z"/>
<path d="M5814 5143 c4 -16 10 -70 13 -120 3 -51 9 -93 14 -93 5 0 17 -17 27
-37 9 -21 25 -44 35 -51 9 -7 17 -26 17 -43 0 -18 5 -29 14 -29 9 0 12 -10 10
-30 -3 -27 0 -30 36 -40 26 -7 41 -18 46 -33 7 -21 7 -21 14 -2 4 11 5 27 1
36 -10 25 -48 69 -60 69 -6 0 -12 17 -12 38 -2 48 -6 76 -18 137 -6 28 -13 71
-16 98 -5 41 -9 47 -29 47 -15 0 -27 9 -34 25 -6 14 -16 25 -22 25 -5 0 -10 7
-10 15 0 8 -7 15 -16 15 -13 0 -15 -6 -10 -27z"/>
<path d="M6078 4655 c2 -16 10 -34 17 -40 6 -5 18 -25 25 -42 11 -30 11 -34
-11 -52 l-24 -19 -3 25 c-2 16 -8 23 -17 19 -8 -3 -17 0 -21 6 -5 7 -11 6 -19
-6 -9 -12 -10 -27 -3 -56 11 -43 24 -50 44 -22 11 15 15 13 33 -28 11 -25 21
-51 21 -57 0 -11 19 -18 42 -14 10 1 30 -67 23 -79 -3 -5 -1 -27 4 -47 7 -24
7 -41 1 -47 -7 -7 -10 -6 -10 1 0 15 -92 14 -103 -1 -4 -6 -5 1 -1 16 5 25 3
27 -39 33 -41 6 -99 45 -68 45 7 0 10 4 6 10 -3 5 -12 7 -20 4 -8 -4 -15 3
-17 18 -2 17 -10 23 -30 24 -31 1 -58 20 -58 40 0 17 -28 33 -50 27 -12 -3
-20 3 -25 17 -6 17 -9 19 -16 9 -6 -11 -9 -10 -15 5 -5 13 -13 16 -31 11 -16
-4 -25 -1 -29 10 -9 22 -81 21 -87 -2 -3 -10 -5 1 -6 25 -1 29 -5 42 -15 42
-8 0 -17 8 -20 18 -3 9 -16 28 -29 42 -13 14 -27 32 -30 40 -4 12 -6 11 -6 -2
-1 -14 -10 -18 -35 -18 -35 0 -53 -19 -35 -37 17 -17 -1 -62 -24 -65 -17 -2
-22 -9 -20 -31 1 -20 -3 -27 -17 -27 -25 0 -35 -17 -20 -35 13 -15 5 -22 -40
-35 -27 -8 -31 -6 -46 26 -10 20 -22 33 -29 30 -7 -2 -17 0 -23 6 -6 6 -12
-17 -17 -68 -7 -79 -26 -114 -61 -114 -8 0 -17 -12 -20 -27 -4 -14 -29 -48
-56 -75 -47 -47 -50 -48 -108 -48 -47 0 -60 -3 -60 -15 0 -12 -15 -15 -82 -13
-71 1 -77 2 -38 8 41 6 42 7 10 8 -19 0 -59 -3 -88 -7 -43 -6 -55 -5 -62 8 -9
14 -12 14 -25 -3 -17 -23 -20 -46 -5 -46 7 0 7 -6 0 -19 -8 -16 -5 -23 20 -41
18 -13 30 -30 30 -44 l0 -23 263 -6 c239 -5 326 -14 382 -36 11 -5 38 -14 60
-21 56 -18 143 -77 160 -109 7 -15 21 -33 29 -40 20 -16 21 -57 3 -68 -22 -13
-37 -69 -24 -82 9 -9 8 -11 -6 -5 -15 6 -17 2 -11 -27 3 -19 7 -39 8 -46 1 -7
5 -16 9 -19 4 -4 7 -16 7 -27 0 -16 -3 -17 -15 -7 -8 7 -15 20 -15 28 0 12 -3
13 -11 5 -9 -9 -8 -16 5 -28 29 -30 36 -51 26 -85 -5 -18 -6 -38 -3 -44 4 -6
13 16 19 49 6 33 12 50 13 38 0 -12 6 -25 11 -28 15 -10 12 -35 -5 -35 -14 0
-19 -15 -17 -50 2 -33 -20 -109 -35 -122 -17 -14 -17 -17 3 81 5 26 4 29 -13
25 -11 -3 -20 -11 -21 -17 -1 -7 -4 -25 -8 -41 -5 -19 -2 -31 7 -38 12 -8 12
-9 -1 -6 -8 3 -17 15 -21 29 -4 13 -8 18 -9 12 -1 -7 -3 -16 -5 -20 -14 -52
-18 -62 -25 -58 -11 7 -2 43 22 88 11 21 18 40 15 43 -2 3 -10 -9 -17 -26 -12
-30 -38 -44 -26 -14 11 28 -14 3 -34 -34 -10 -20 -19 -31 -20 -24 0 23 -16 12
-33 -23 -14 -29 -20 -34 -35 -26 -12 6 -23 5 -37 -6 -19 -13 -18 -14 10 -8 26
5 27 4 7 -4 -14 -7 -31 -7 -48 -1 -17 7 -32 6 -46 -1 -15 -8 -19 -8 -14 0 4 6
2 11 -4 11 -7 0 -10 6 -7 14 3 8 0 13 -7 12 -18 -2 -86 -63 -86 -76 0 -5 -7
-10 -15 -10 -8 0 -15 -3 -15 -8 0 -4 -13 -13 -30 -20 -16 -8 -30 -18 -30 -24
0 -5 -6 -16 -12 -23 -29 -32 -36 -43 -43 -66 -4 -13 -17 -39 -28 -58 -18 -30
-21 -32 -27 -15 -4 12 -1 23 8 30 9 6 15 25 15 43 0 17 4 31 9 31 4 0 8 5 8
10 0 24 -40 -17 -61 -62 -18 -39 -29 -50 -58 -58 -54 -15 -66 -13 -51 5 7 9
11 18 8 20 -10 10 -60 -78 -79 -138 -11 -34 -26 -75 -33 -92 -8 -16 -18 -43
-21 -58 -5 -17 -13 -26 -20 -23 -8 3 -11 -2 -8 -12 2 -10 -3 -31 -11 -47 -9
-17 -16 -38 -16 -48 0 -26 -24 -97 -32 -97 -5 0 -8 -7 -8 -16 0 -8 -4 -12 -10
-9 -5 3 -10 -4 -10 -16 0 -17 -3 -19 -14 -10 -11 9 -16 6 -25 -19 -6 -18 -15
-29 -21 -25 -5 3 -10 -1 -10 -9 0 -21 -44 -66 -64 -66 -9 0 -16 -5 -16 -11 0
-8 -4 -8 -15 1 -14 12 -39 5 -30 -9 2 -4 -6 -22 -18 -38 -18 -25 -25 -28 -39
-19 -13 8 -23 8 -38 -2 -11 -7 -20 -8 -20 -2 0 5 -19 -9 -43 -31 -31 -29 -48
-38 -64 -34 -13 3 -23 1 -23 -4 0 -13 -35 -20 -52 -10 -20 11 -58 0 -58 -18 0
-8 -4 -12 -9 -8 -12 7 -31 -26 -31 -53 0 -11 -7 -23 -16 -26 -13 -5 -14 -9 -4
-20 10 -13 3 -14 -44 -13 -40 1 -56 6 -56 16 0 8 6 11 16 7 8 -3 12 -2 9 4 -9
14 29 12 43 -2 9 -9 12 -7 12 11 0 23 -2 23 -57 16 -32 -4 -61 -9 -64 -11 -4
-2 -5 -19 -2 -39 2 -20 -1 -35 -7 -35 -5 0 -10 14 -10 30 0 35 -10 38 -28 10
-10 -17 -10 -20 3 -20 13 0 14 -4 5 -20 -8 -16 -8 -20 4 -20 31 0 26 -20 -9
-37 -33 -16 -35 -18 -19 -30 17 -12 16 -13 -3 -13 -14 0 -22 -8 -25 -25 -7
-32 3 -38 47 -31 37 6 49 -8 15 -17 -11 -3 -20 -13 -19 -24 0 -16 1 -16 9 2 5
11 9 15 9 8 1 -6 6 -24 11 -38 8 -21 13 -25 24 -16 10 9 21 8 42 0 16 -7 34
-13 39 -13 6 -1 13 -23 16 -51 l6 -50 1 53 c1 32 6 51 12 47 6 -3 7 1 4 9 -4
10 -1 16 9 16 17 0 27 -29 27 -77 0 -26 -4 -33 -20 -33 -11 0 -20 -7 -20 -16
0 -8 4 -13 9 -9 14 8 23 -12 16 -34 -4 -13 -13 -18 -25 -16 -11 2 -20 -1 -20
-6 0 -5 8 -9 17 -7 14 2 18 -4 18 -32 0 -29 -3 -35 -20 -33 -11 1 -14 0 -7 -3
6 -3 12 -12 12 -20 0 -8 4 -14 8 -14 5 0 15 -11 22 -25 7 -14 18 -25 23 -25 5
0 -3 16 -18 36 -31 40 -29 54 3 24 25 -24 32 -25 32 -6 0 8 -10 22 -22 31 -20
13 -21 17 -8 25 13 9 13 11 0 21 -9 6 -11 12 -5 15 6 2 9 20 7 39 -3 27 -1 35
12 35 9 0 16 5 16 10 0 6 5 10 10 10 6 0 10 -15 10 -34 0 -32 2 -35 28 -32 17
1 26 7 24 16 -2 7 3 17 10 22 10 6 10 10 -2 17 -18 12 -6 26 15 17 11 -4 14
-12 10 -26 -8 -26 3 -60 20 -60 7 0 16 -8 19 -17 6 -15 8 -15 16 -3 7 11 10 8
10 -13 0 -31 33 -67 91 -102 37 -22 89 -99 93 -139 2 -14 2 -26 1 -26 -1 0
-24 9 -50 21 -38 17 -59 20 -113 15 -37 -3 -81 -5 -98 -5 -44 -1 -84 -18 -84
-36 0 -8 -9 -15 -21 -15 -31 0 -65 -82 -51 -126 7 -24 7 -34 -2 -38 -6 -2 7
-5 30 -5 45 -1 64 14 81 64 28 82 48 115 70 115 27 0 33 -17 17 -48 -23 -44
11 -122 53 -122 7 0 13 7 13 15 0 25 23 65 37 65 7 0 13 8 13 18 0 15 56 52
79 52 5 0 16 -18 25 -40 19 -47 20 -149 3 -200 -10 -29 -17 -35 -45 -36 -17
-1 -39 -7 -47 -14 -9 -7 -27 -10 -45 -7 -19 4 -34 1 -44 -8 -8 -8 -20 -15 -26
-15 -7 0 -29 -15 -51 -33 -21 -19 -60 -41 -87 -50 -26 -9 -61 -21 -78 -28 -18
-7 -39 -9 -50 -4 -10 4 -40 10 -66 12 -51 4 -64 -11 -33 -37 13 -10 19 -10 33
4 24 21 32 20 32 -3 0 -14 -5 -18 -19 -14 -20 5 -36 -11 -26 -27 4 -7 12 -7
25 0 13 7 20 6 22 -2 3 -7 14 -9 34 -3 16 4 23 10 16 12 -15 6 -6 23 14 23 8
0 14 -7 14 -16 0 -14 9 -16 73 -10 81 7 167 26 167 37 0 4 12 10 26 13 15 4
41 18 59 32 40 30 55 30 55 0 0 -28 -44 -80 -68 -82 -10 -1 -42 -13 -73 -28
-31 -14 -61 -26 -67 -26 -7 0 -12 -4 -12 -8 0 -12 -182 -30 -245 -25 -27 2
-63 8 -79 13 -16 6 -40 10 -52 10 -13 0 -24 3 -24 8 0 4 -17 7 -38 6 -20 0
-41 3 -47 6 -5 4 -40 16 -76 28 -72 22 -82 29 -173 114 -33 32 -69 58 -78 58
-10 0 -18 6 -18 13 0 25 -82 48 -95 27 -3 -6 4 -10 17 -10 18 0 27 -9 37 -36
11 -32 11 -37 -6 -49 -24 -19 -30 -18 -37 2 -6 15 -8 15 -16 3 -7 -11 -11 -9
-19 13 -12 31 -18 32 -45 12 -10 -8 -22 -12 -27 -10 -4 3 -19 1 -33 -5 -35
-13 -116 -2 -116 16 0 8 -4 14 -10 14 -5 0 -10 -10 -10 -22 0 -13 -4 -18 -8
-13 -8 12 -32 13 -49 2 -8 -5 -14 0 -17 15 -3 13 -7 32 -9 43 -3 11 -5 3 -6
-17 -1 -38 -9 -46 -66 -68 -24 -9 -26 -8 -23 13 3 19 -1 22 -34 22 -24 0 -38
-5 -38 -13 0 -10 -4 -10 -23 0 -12 7 -30 11 -40 9 -15 -2 -17 2 -12 19 6 19 5
20 -13 11 -15 -8 -23 -7 -32 4 -6 7 -18 11 -26 8 -8 -3 -14 1 -14 11 0 9 -6
16 -14 16 -8 0 -22 3 -32 7 -13 5 -15 3 -9 -7 6 -10 1 -12 -23 -7 -27 6 -32 4
-32 -13 0 -10 -4 -22 -10 -25 -5 -3 -10 2 -10 11 0 29 -14 5 -26 -44 -7 -26
-12 -37 -13 -24 -1 18 -7 22 -36 22 -29 0 -35 -4 -35 -22 0 -12 -3 -18 -7 -14
-9 8 -9 13 -11 75 -3 62 -12 46 -13 -23 -2 -52 -4 -57 -23 -54 -11 2 -23 6
-26 9 -12 13 -93 39 -125 39 -18 0 -37 5 -40 11 -11 17 -49 28 -63 17 -17 -15
-15 -49 5 -63 9 -7 13 -17 9 -23 -10 -17 -26 -15 -26 3 0 9 -6 12 -15 9 -10
-4 -15 0 -15 15 0 39 -28 23 -38 -22 l-10 -42 -1 43 c-1 23 -5 42 -10 42 -5 0
-11 8 -14 18 -2 9 -2 -11 1 -44 5 -69 -5 -84 -40 -60 -28 20 -103 22 -92 4 4
-7 -16 9 -45 37 l-51 49 0 -42 c0 -23 -4 -42 -10 -42 -5 0 -10 18 -10 40 0 29
-4 40 -15 40 -11 0 -15 -11 -15 -40 0 -22 -4 -40 -9 -40 -16 0 -31 27 -25 44
4 11 1 16 -10 16 -10 0 -15 -8 -13 -22 1 -17 -3 -23 -18 -23 -15 0 -19 6 -17
23 1 15 -2 22 -10 19 -8 -2 -13 -21 -13 -43 -1 -78 -5 -94 -20 -94 -8 0 -15 8
-15 18 -1 16 -2 16 -13 0 -10 -12 -17 -14 -32 -6 -13 8 -24 7 -36 -1 -26 -16
-59 -14 -59 4 0 8 -4 15 -10 15 -5 0 -10 -7 -10 -15 0 -8 -8 -15 -17 -16 -15
0 -15 -2 2 -9 18 -7 19 -8 3 -15 -10 -4 -18 -14 -18 -22 0 -8 -7 -13 -18 -11
-9 2 -17 10 -17 18 0 8 -9 16 -20 18 -11 2 -24 8 -30 13 -16 16 -26 10 -23
-14 2 -18 -2 -23 -25 -25 -15 -2 -27 -9 -28 -15 -1 -7 -4 -1 -8 13 -8 28 -36
34 -36 8 0 -10 -4 -17 -10 -16 -5 1 -9 8 -7 14 1 7 -2 15 -8 19 -5 3 -10 -3
-10 -14 0 -24 -12 -27 -29 -7 -16 19 -51 8 -51 -16 0 -10 -4 -16 -10 -13 -5 3
-10 17 -10 31 0 15 -6 24 -16 24 -11 0 -13 -6 -9 -19 7 -24 -11 -37 -31 -20
-8 6 -17 9 -21 5 -4 -3 2 -12 13 -20 17 -13 16 -14 -10 -9 -25 5 -28 3 -23
-11 4 -10 7 -22 7 -27 0 -16 18 -10 23 9 4 15 5 14 6 -2 0 -11 19 -37 41 -57
22 -21 40 -42 40 -48 0 -6 9 -11 19 -11 11 0 23 -5 26 -10 3 -6 15 -10 26 -10
10 0 19 -4 19 -10 0 -5 -6 -10 -12 -10 -16 0 40 -53 65 -63 11 -4 17 -17 17
-37 0 -16 5 -30 10 -30 6 0 10 7 10 15 0 10 6 8 23 -8 13 -12 21 -28 19 -34
-2 -7 1 -13 8 -13 7 0 10 -7 6 -15 -3 -8 -1 -15 5 -15 5 0 9 -6 8 -13 -1 -6
-1 -20 0 -29 1 -17 157 -18 3136 -18 l3135 0 0 2234 c0 1542 -3 2237 -10 2241
-12 7 -60 -21 -73 -42 -4 -7 -15 -13 -22 -13 -9 0 -16 -11 -17 -27 -3 -61 -5
-80 -12 -130 -4 -29 -12 -55 -16 -58 -5 -3 -13 -35 -20 -73 -6 -37 -17 -74
-24 -84 -11 -15 -51 -22 -113 -19 -21 1 -53 47 -53 77 0 18 -42 104 -51 104
-13 0 -23 -42 -25 -100 -1 -30 -4 -62 -7 -70 -14 -38 -16 -69 -6 -72 8 -3 8
-10 -2 -26 -8 -13 -20 -20 -30 -17 -9 3 -28 1 -43 -5 -21 -7 -34 -6 -56 5 -16
8 -45 15 -65 15 -25 0 -35 4 -35 16 0 12 -6 15 -26 10 -41 -11 -132 4 -157 25
l-22 19 23 19 c27 23 27 27 2 41 -15 8 -27 7 -50 -5 -19 -10 -40 -13 -57 -9
-30 8 -63 39 -63 61 0 7 -11 13 -25 13 -14 0 -25 5 -25 10 0 13 197 14 204 1
4 -5 0 -12 -6 -14 -7 -3 1 -4 17 -1 25 4 33 -1 50 -28 12 -19 33 -36 52 -41
28 -9 32 -14 36 -51 3 -28 4 -22 4 19 0 67 7 112 28 165 21 57 45 141 45 161
0 11 -7 19 -15 19 -8 0 -15 8 -15 18 0 10 -25 42 -55 72 -30 30 -55 60 -55 67
0 13 -12 17 -37 14 -7 -1 -13 5 -13 14 0 11 -11 15 -40 15 -34 0 -40 -3 -41
-22 -1 -13 -5 -5 -8 17 -4 26 -11 40 -21 40 -8 -1 -29 10 -47 22 -18 13 -34
19 -38 13 -3 -5 1 -34 10 -64 l16 -55 -35 -35 c-26 -27 -36 -31 -40 -20 -4 10
-13 13 -30 8 -21 -5 -26 -2 -31 19 -7 26 20 63 63 86 29 15 28 29 -3 41 -14 5
-25 16 -25 24 0 21 -64 40 -89 27 -26 -14 -39 -14 -44 2 -2 6 -2 -1 1 -18z
m-531 -187 c-2 -13 -4 -3 -4 22 0 25 2 35 4 23 2 -13 2 -33 0 -45z m-99 -29
c-2 -6 -8 -10 -13 -10 -5 0 -11 4 -13 10 -2 6 4 11 13 11 9 0 15 -5 13 -11z
m52 -4 c0 -8 -2 -15 -4 -15 -2 0 -6 7 -10 15 -3 8 -1 15 4 15 6 0 10 -7 10
-15z m786 -235 c24 0 34 -5 34 -15 0 -19 -70 -21 -88 -3 -17 17 -15 31 4 24 9
-3 31 -6 50 -6z m311 -346 c-9 -9 -28 6 -21 18 4 6 10 6 17 -1 6 -6 8 -13 4
-17z m58 -204 c14 -7 8 -8 -20 -3 -22 3 -42 7 -44 9 -9 8 45 2 64 -6z m10 -80
c-3 -4 1 -11 7 -13 8 -4 9 -6 2 -6 -7 -1 -19 11 -29 25 -16 25 -16 25 5 14 11
-6 18 -15 15 -20z m135 -60 c24 -20 29 -28 15 -24 -15 4 -16 3 -6 -4 7 -5 22
-7 33 -4 15 3 19 1 16 -9 -10 -30 -40 -20 -84 26 -34 35 -48 44 -58 36 -10 -8
-12 -5 -10 12 1 12 3 23 3 24 3 5 61 -31 91 -57z m-1200 -208 c0 -16 -7 -37
-16 -48 -15 -18 -15 -18 -4 3 6 13 8 34 4 48 -4 15 -2 25 5 25 6 0 11 -13 11
-28z m1245 -22 c3 -5 2 -10 -4 -10 -5 0 -13 5 -16 10 -3 6 -2 10 4 10 5 0 13
-4 16 -10z m-1246 -104 c-9 -8 -10 -7 -5 7 3 10 7 26 7 35 1 9 4 6 6 -7 3 -13
-1 -28 -8 -35z m-27 -8 c-7 -7 -12 -8 -12 -2 0 14 12 26 19 19 2 -3 -1 -11 -7
-17z m1163 3 c3 -5 1 -12 -5 -16 -5 -3 -10 1 -10 9 0 18 6 21 15 7z m-1219
-40 c-21 -39 -20 -44 4 -31 11 6 26 8 32 4 17 -11 -40 -25 -69 -18 -23 6 -23
6 9 43 39 44 46 45 24 2z m144 35 c0 -3 -4 -8 -10 -11 -5 -3 -10 -1 -10 4 0 6
5 11 10 11 6 0 10 -2 10 -4z m-218 -43 c-3 -16 -7 -22 -10 -15 -4 13 4 42 11
42 2 0 2 -12 -1 -27z m465 -5 c-3 -7 -5 -2 -5 12 0 14 2 19 5 13 2 -7 2 -19 0
-25z m-306 10 c0 -10 2 -10 6 0 8 19 23 14 23 -8 0 -11 5 -20 11 -20 6 0 4 -7
-5 -15 -8 -8 -22 -15 -30 -15 -9 0 -16 -8 -16 -17 0 -15 2 -16 10 -3 5 8 10
11 10 5 0 -11 -69 -75 -82 -75 -4 0 -8 5 -8 11 0 5 5 7 12 3 8 -5 9 5 5 35 -5
40 -3 43 23 52 22 8 27 16 25 35 -1 13 2 24 6 24 5 0 9 -6 10 -12z m116 -78
c6 25 11 36 12 25 1 -12 6 -26 13 -33 9 -9 9 -15 -1 -24 -10 -11 -11 -10 -6 5
4 9 3 17 -3 17 -5 0 -12 -8 -16 -17 -3 -10 -9 -24 -12 -32 -5 -10 -2 -12 9 -8
12 4 15 1 11 -11 -3 -9 6 1 21 23 l27 40 -6 -34 c-6 -33 -31 -71 -46 -71 -4 0
-10 10 -13 21 -4 15 -11 20 -22 16 -13 -5 -14 -3 -5 13 19 35 10 32 -30 -12
-28 -31 -40 -38 -40 -25 0 9 4 17 10 17 16 0 42 59 35 80 -4 12 -2 20 4 20 6
0 11 -8 11 -17 0 -36 20 11 22 52 1 29 3 22 7 -25 l6 -65 12 45z m-40 28 c-3
-8 -6 -5 -6 6 -1 11 2 17 5 13 3 -3 4 -12 1 -19z m148 12 c3 -5 2 -10 -4 -10
-5 0 -13 5 -16 10 -3 6 -2 10 4 10 5 0 13 -4 16 -10z m335 -9 c0 -6 -4 -13
-10 -16 -5 -3 -10 1 -10 9 0 9 5 16 10 16 6 0 10 -4 10 -9z m27 -13 c-3 -8 -6
-5 -6 6 -1 11 2 17 5 13 3 -3 4 -12 1 -19z m682 -89 c18 -39 31 -73 28 -75 -3
-3 -11 9 -18 27 -8 18 -24 52 -35 76 -12 24 -18 43 -15 43 4 0 22 -32 40 -71z
m-1054 42 c-3 -6 -11 -11 -17 -11 -6 0 -6 6 2 15 14 17 26 13 15 -4z m242 -33
c-3 -7 -5 -2 -5 12 0 14 2 19 5 13 2 -7 2 -19 0 -25z m250 7 c-7 -14 -16 -25
-20 -25 -8 0 -2 14 16 38 15 19 16 14 4 -13z m-490 -27 c-3 -8 -6 -5 -6 6 -1
11 2 17 5 13 3 -3 4 -12 1 -19z m544 -20 c0 -7 3 -25 5 -40 3 -21 1 -28 -11
-28 -8 0 -15 -7 -15 -15 0 -8 -5 -15 -10 -15 -6 0 -8 11 -4 25 3 14 3 33 0 42
-6 15 -8 15 -16 3 -5 -8 -12 -11 -17 -7 -10 11 17 27 34 20 7 -3 13 2 13 11 0
19 20 22 21 4z m-668 -12 c4 -10 1 -13 -8 -9 -8 3 -12 9 -9 14 7 12 11 11 17
-5z m350 -1 c4 -8 2 -17 -3 -20 -6 -4 -10 -15 -10 -26 0 -11 -5 -17 -10 -14
-6 4 -28 -13 -50 -37 l-39 -43 14 40 c8 25 19 39 28 37 8 -1 22 15 32 38 19
42 29 49 38 25z m57 -53 c0 -12 -7 -25 -15 -28 -8 -4 -15 -11 -15 -18 0 -6 -8
-16 -19 -23 -18 -11 -18 -11 0 26 10 20 21 50 25 65 5 20 9 24 15 14 5 -7 9
-23 9 -36z m77 -4 c-3 -7 -5 -2 -5 12 0 14 2 19 5 13 2 -7 2 -19 0 -25z m-400
-10 c-3 -8 -6 -5 -6 6 -1 11 2 17 5 13 3 -3 4 -12 1 -19z m1152 -43 c0 -5 -6
-1 -14 9 -8 10 -11 24 -8 29 6 10 21 -16 22 -38z m-909 19 c0 -8 -5 -12 -10
-9 -6 4 -8 11 -5 16 9 14 15 11 15 -7z m147 -16 c-3 -7 -5 -2 -5 12 0 14 2 19
5 13 2 -7 2 -19 0 -25z m-254 2 c-3 -11 -9 -20 -13 -20 -5 0 -6 9 -3 20 3 11
9 20 13 20 5 0 6 -9 3 -20z m417 1 c0 -6 -4 -13 -10 -16 -5 -3 -10 1 -10 9 0
9 5 16 10 16 6 0 10 -4 10 -9z m31 -14 c-10 -9 -11 -8 -5 6 3 10 9 15 12 12 3
-3 0 -11 -7 -18z m-371 -37 c0 -5 -7 -10 -16 -10 -8 0 -12 5 -9 10 3 6 10 10
16 10 5 0 9 -4 9 -10z m-320 -4 c0 -3 -4 -8 -10 -11 -5 -3 -10 -1 -10 4 0 6 5
11 10 11 6 0 10 -2 10 -4z m817 -38 c-3 -8 -6 -5 -6 6 -1 11 2 17 5 13 3 -3 4
-12 1 -19z m493 -77 c0 -32 -6 -24 -14 19 -4 25 -3 31 4 20 5 -8 10 -26 10
-39z m-164 -35 c0 -14 -5 -21 -9 -17 -4 4 -5 15 -1 24 9 24 12 21 10 -7z m151
-38 c-3 -8 -6 -5 -6 6 -1 11 2 17 5 13 3 -3 4 -12 1 -19z m30 -80 c-3 -8 -6
-5 -6 6 -1 11 2 17 5 13 3 -3 4 -12 1 -19z m-2000 -120 c-2 -13 -4 -3 -4 22 0
25 2 35 4 23 2 -13 2 -33 0 -45z m1873 58 c0 -3 -4 -8 -10 -11 -5 -3 -10 -1
-10 4 0 6 5 11 10 11 6 0 10 -2 10 -4z m181 -19 c-10 -9 -11 -8 -5 6 3 10 9
15 12 12 3 -3 0 -11 -7 -18z m-1811 -8 c0 -6 -4 -7 -10 -4 -5 3 -10 11 -10 16
0 6 5 7 10 4 6 -3 10 -11 10 -16z m1900 -62 c0 -5 -4 -5 -10 -2 -5 3 -10 14
-10 23 0 15 2 15 10 2 5 -8 10 -19 10 -23z m-13 -59 c-3 -8 -6 -5 -6 6 -1 11
2 17 5 13 3 -3 4 -12 1 -19z m-50 -40 c-3 -7 -5 -2 -5 12 0 14 2 19 5 13 2 -7
2 -19 0 -25z m-2178 -87 c0 -14 -1 -14 -6 -1 -3 8 -10 24 -15 35 -9 20 -9 20
6 1 9 -11 16 -27 15 -35z m-699 -137 c0 -9 -9 -27 -20 -41 -23 -29 -25 -23 -8
24 13 35 28 44 28 17z m740 -35 c0 -6 -4 -7 -10 -4 -5 3 -10 11 -10 16 0 6 5
7 10 4 6 -3 10 -11 10 -16z m-890 -13 c0 -7 -8 -17 -17 -20 -10 -4 -30 -13
-46 -22 -31 -17 -47 -12 -47 18 0 18 4 20 41 15 29 -4 42 -1 46 9 7 18 23 18
23 0z m1637 -128 c-3 -7 -5 -2 -5 12 0 14 2 19 5 13 2 -7 2 -19 0 -25z m-947
-189 c0 -6 -4 -7 -10 -4 -5 3 -10 11 -10 16 0 6 5 7 10 4 6 -3 10 -11 10 -16z
m-870 -34 c0 -8 -7 -15 -15 -15 -16 0 -20 12 -8 23 11 12 23 8 23 -8z m180
-17 c12 -13 28 -35 36 -50 14 -28 34 -38 34 -17 0 5 5 7 11 3 8 -5 8 -9 -1
-14 -9 -5 -9 -13 -1 -27 5 -11 8 -23 4 -26 -3 -3 -2 -14 2 -24 7 -16 9 -15 16
7 9 25 9 25 5 -3 -2 -20 1 -27 13 -25 20 4 27 -28 7 -35 -11 -4 -26 12 -51 52
-19 32 -35 63 -35 69 0 5 -18 32 -41 61 -40 51 -39 72 1 29z m300 -23 c0 -5
-5 -3 -10 5 -5 8 -10 20 -10 25 0 6 5 3 10 -5 5 -8 10 -19 10 -25z m-306 -63
c-6 -33 -5 -35 8 -24 13 10 17 10 22 -3 8 -21 -27 -20 -46 3 -9 9 -19 28 -23
42 -7 23 -7 23 9 7 23 -23 29 -21 21 4 -5 15 -4 19 4 14 8 -4 9 -20 5 -43z
m416 -1 c-1 -13 -3 -13 -15 3 -19 26 -19 42 0 26 8 -7 15 -20 15 -29z m339 -7
c3 -16 1 -17 -13 -5 -19 16 -21 34 -3 29 6 -3 14 -13 16 -24z m-259 -99 c7 -9
8 -15 2 -15 -5 0 -12 7 -16 15 -3 8 -4 15 -2 15 2 0 9 -7 16 -15z m-380 -60
c-1 -17 -40 36 -40 54 0 10 7 6 20 -14 11 -16 20 -34 20 -40z m12 -27 c-7 -7
-12 -8 -12 -2 0 14 12 26 19 19 2 -3 -1 -11 -7 -17z m45 -14 c-3 -3 -12 -4
-19 -1 -8 3 -5 6 6 6 11 1 17 -2 13 -5z m30 -76 c-3 -8 -6 -5 -6 6 -1 11 2 17
5 13 3 -3 4 -12 1 -19z m101 -60 c34 -28 88 -106 108 -154 8 -20 18 -67 20
-104 5 -61 3 -72 -20 -109 -15 -23 -33 -41 -42 -41 -8 0 -13 -4 -10 -9 4 -5
-3 -7 -14 -4 -12 3 -20 0 -20 -6 0 -7 -4 -10 -9 -7 -6 4 -6 19 0 40 18 66 -1
191 -45 291 -14 30 -23 55 -21 55 3 0 -2 18 -11 40 -9 23 -15 42 -13 43 2 1
13 7 24 13 17 10 21 8 23 -7 2 -10 16 -29 30 -41z m609 30 c-3 -8 -6 -5 -6 6
-1 11 2 17 5 13 3 -3 4 -12 1 -19z m0 -106 c-4 -13 -5 -12 -6 5 0 12 -5 25
-11 28 -5 3 -10 11 -10 18 0 6 7 1 16 -11 8 -12 13 -30 11 -40z m-640 -374
c-3 -7 -5 -2 -5 12 0 14 2 19 5 13 2 -7 2 -19 0 -25z m-2326 -57 c-8 -5 -20
-7 -28 -4 -21 8 -15 13 15 13 20 0 23 -3 13 -9z m282 -68 c-7 -2 -19 -2 -25 0
-7 3 -2 5 12 5 14 0 19 -2 13 -5z m-793 -23 c0 -5 -9 -10 -20 -10 -11 0 -20 5
-20 10 0 6 9 10 20 10 11 0 20 -4 20 -10z"/>
<path d="M6785 3500 c-3 -5 -1 -10 4 -10 6 0 11 5 11 10 0 6 -2 10 -4 10 -3 0
-8 -4 -11 -10z"/>
<path d="M5550 3050 c0 -5 5 -10 10 -10 6 0 10 5 10 10 0 6 -4 10 -10 10 -5 0
-10 -4 -10 -10z"/>
<path d="M5380 4620 c0 -5 7 -10 16 -10 8 0 12 5 9 10 -3 6 -10 10 -16 10 -5
0 -9 -4 -9 -10z"/>
<path d="M5372 4591 c4 -13 18 -16 19 -4 0 4 -5 9 -11 12 -7 2 -11 -2 -8 -8z"/>
<path d="M6762 4384 c-35 -14 -39 -39 -6 -39 10 0 25 -4 32 -8 8 -6 12 -2 12
12 0 12 5 21 10 21 6 0 10 -18 10 -40 0 -29 4 -40 15 -40 8 0 15 -8 15 -19 0
-10 6 -31 14 -45 10 -20 16 -23 23 -14 12 15 -2 78 -17 78 -6 0 -10 16 -10 35
0 37 -34 84 -46 64 -4 -8 -9 -8 -13 -1 -4 7 -18 5 -39 -4z"/>
<path d="M1175 4100 c-3 -5 1 -10 9 -10 9 0 16 5 16 10 0 6 -4 10 -9 10 -6 0
-13 -4 -16 -10z"/>
<path d="M2784 3846 c-3 -8 -1 -23 5 -33 9 -15 10 -13 11 15 0 34 -7 42 -16
18z"/>
<path d="M4113 3746 c-18 -11 -33 -29 -33 -40 0 -16 5 -17 33 -11 17 4 40 7
50 7 9 -1 17 6 17 14 0 8 -6 14 -14 14 -8 0 -16 8 -18 19 -3 17 -4 17 -35 -3z"/>
<path d="M4204 3721 c9 -10 23 -18 31 -18 25 0 11 20 -19 28 -26 7 -27 7 -12
-10z"/>
<path d="M895 3651 c-38 -8 -95 -38 -95 -51 0 -6 -18 -10 -40 -10 l-40 0 0
-45 c0 -40 5 -50 40 -82 43 -40 49 -53 25 -53 -11 0 -15 -11 -15 -40 0 -39 1
-40 33 -40 24 0 40 -8 59 -30 l26 -30 7 30 c6 28 25 43 25 20 0 -23 19 -8 25
20 3 16 15 32 25 35 10 3 21 12 24 20 3 8 15 15 26 15 11 0 20 5 20 10 0 6 7
10 15 10 16 0 16 45 -1 70 -5 8 -9 22 -10 30 -1 8 -2 22 -3 31 0 9 -10 19 -22
22 -16 4 -19 11 -14 26 5 15 -1 23 -24 35 -31 17 -37 17 -86 7z"/>
<path d="M3523 3491 c4 -31 2 -38 -9 -34 -25 9 -28 -29 -6 -68 25 -43 27 -53
10 -43 -29 18 34 -58 110 -132 28 -28 52 -56 52 -61 0 -6 7 -14 16 -17 10 -4
14 -14 11 -26 -6 -24 23 -32 39 -11 9 12 6 28 -13 71 -41 92 -65 181 -60 221
3 26 -1 45 -14 65 -18 27 -19 28 -19 7 0 -35 -15 -28 -44 20 -20 33 -25 38
-26 20 0 -12 5 -25 10 -28 13 -8 13 -25 1 -25 -5 0 -18 18 -28 40 -23 51 -37
51 -30 1z"/>
<path d="M5451 3374 c0 -11 3 -14 6 -6 3 7 2 16 -1 19 -3 4 -6 -2 -5 -13z"/>
<path d="M2203 3332 c-14 -9 -12 -224 2 -229 29 -9 50 219 22 230 -8 3 -19 2
-24 -1z"/>
<path d="M5451 3314 c0 -11 3 -14 6 -6 3 7 2 16 -1 19 -3 4 -6 -2 -5 -13z"/>
<path d="M860 3238 l-25 -10 23 -11 c12 -5 22 -16 22 -24 0 -8 4 -11 10 -8 6
4 5 13 -3 26 -10 16 -9 21 3 29 20 13 2 12 -30 -2z"/>
<path d="M915 3240 c4 -6 11 -8 16 -5 14 9 11 15 -7 15 -8 0 -12 -5 -9 -10z"/>
<path d="M1576 3234 c-8 -20 0 -32 14 -18 5 5 5 15 1 22 -6 11 -10 10 -15 -4z"/>
<path d="M912 3199 c2 -6 8 -10 13 -10 5 0 11 4 13 10 2 6 -4 11 -13 11 -9 0
-15 -5 -13 -11z"/>
<path d="M5166 3124 c-9 -24 -2 -26 12 -4 7 11 8 20 3 20 -5 0 -12 -7 -15 -16z"/>
<path d="M1120 3100 c0 -5 7 -10 16 -10 8 0 12 5 9 10 -3 6 -10 10 -16 10 -5
0 -9 -4 -9 -10z"/>
<path d="M4571 2574 c0 -11 3 -14 6 -6 3 7 2 16 -1 19 -3 4 -6 -2 -5 -13z"/>
<path d="M516 2515 c-63 -18 -76 -30 -50 -50 18 -13 16 -14 -22 -15 -24 0 -47
-6 -54 -15 -9 -10 -9 -15 -1 -15 6 0 11 -6 11 -13 0 -14 -87 -37 -143 -37 -37
0 -37 -1 -37 -40 0 -22 5 -40 10 -40 6 0 10 -13 10 -30 0 -40 11 -38 54 11 44
50 66 48 133 -14 l45 -41 -7 -84 -7 -83 24 4 c12 2 17 2 11 0 -7 -3 -13 -13
-13 -24 0 -28 70 -27 88 2 11 17 16 18 28 8 11 -9 18 -9 26 -1 7 7 26 12 43
12 17 0 36 5 43 12 9 9 12 9 12 0 0 -7 13 -12 30 -12 l30 0 0 75 c0 88 -21
145 -46 124 -12 -10 -14 -3 -14 41 0 38 -5 57 -18 69 -27 24 -62 117 -50 129
6 6 8 19 4 29 -6 14 -9 15 -15 4 -7 -10 -13 -10 -29 -2 -25 13 -33 13 -96 -4z
m-6 -35 c0 -5 -7 -10 -15 -10 -8 0 -15 5 -15 10 0 6 7 10 15 10 8 0 15 -4 15
-10z m-15 -370 c3 -5 1 -10 -4 -10 -6 0 -11 5 -11 10 0 6 2 10 4 10 3 0 8 -4
11 -10z"/>
<path d="M2806 2374 c-4 -9 -4 -19 -1 -23 8 -7 41 14 38 25 -4 17 -30 15 -37
-2z"/>
<path d="M137 2248 c-10 -8 -19 -21 -20 -30 -4 -22 -27 -49 -38 -43 -4 3 -18
-4 -31 -17 -14 -14 -17 -23 -10 -26 7 -2 12 -21 12 -43 0 -35 -3 -39 -25 -39
l-24 0 -1 -346 0 -347 52 7 c60 8 131 19 233 36 89 14 213 5 330 -25 50 -13
91 -20 93 -15 2 4 12 6 22 3 11 -3 45 6 75 21 31 14 60 26 65 26 6 0 10 4 10
9 0 5 11 12 24 15 13 3 38 19 55 35 17 16 38 31 46 35 9 3 13 11 10 17 -5 7 1
9 15 7 13 -2 25 3 27 10 3 7 -4 12 -19 12 -18 0 -20 2 -8 10 12 8 12 10 -5 10
-11 0 -26 9 -33 20 -14 22 -43 26 -74 9 -11 -6 -61 -13 -109 -15 -75 -4 -89
-2 -89 11 0 11 -11 15 -40 15 -35 0 -40 3 -40 23 0 13 -9 32 -20 42 -20 18
-21 18 -45 -5 -24 -23 -25 -23 -45 -5 -11 10 -33 18 -50 17 -38 -1 -46 12 -20
31 17 12 18 16 6 26 -11 9 -16 9 -21 1 -4 -7 -16 -10 -26 -7 -21 6 -44 -18
-44 -44 0 -10 -4 -18 -10 -16 -5 1 -9 10 -8 20 2 11 -4 17 -18 17 -18 0 -20
-2 -8 -16 10 -13 10 -17 -2 -26 -10 -6 -10 -11 -2 -14 15 -7 -2 -70 -25 -94
-19 -20 -125 -34 -151 -20 -9 5 -25 12 -36 15 l-20 7 20 8 c18 8 17 9 -6 9
-19 1 -31 10 -45 36 -10 19 -22 35 -25 35 -4 0 -7 15 -6 33 2 22 8 35 24 41
12 6 25 24 30 40 8 27 15 32 56 39 31 5 55 4 69 -4 17 -9 23 -9 26 0 2 6 17
11 33 11 21 0 27 4 23 15 -4 9 0 15 10 15 9 0 16 -5 16 -11 0 -5 5 -7 11 -4 6
4 8 14 5 22 -8 20 11 43 29 37 11 -5 12 1 5 28 -6 18 -10 56 -10 85 0 41 4 55
21 67 27 18 18 33 -26 42 -19 3 -35 12 -35 19 0 7 -17 25 -37 41 -21 15 -39
32 -41 36 -2 4 -21 8 -42 8 -34 0 -39 3 -42 26 -3 22 -5 24 -21 12z m370 -604
c-3 -3 -12 -4 -19 -1 -8 3 -5 6 6 6 11 1 17 -2 13 -5z"/>
<path d="M1274 2250 c-29 -12 -39 -40 -15 -40 11 0 21 6 24 13 2 6 8 9 12 5
10 -9 -16 -33 -35 -33 -8 0 -20 4 -27 8 -8 5 -14 -1 -18 -18 -3 -14 -7 -36
-10 -50 -3 -14 -10 -24 -16 -22 -13 3 -39 -69 -39 -110 0 -48 18 -40 23 10 l4
42 1 -42 c1 -28 7 -43 15 -43 7 0 21 -26 31 -57 10 -32 21 -65 23 -73 6 -19
33 64 33 103 0 15 4 27 9 27 5 0 22 13 38 28 15 16 35 32 43 35 11 5 12 8 3
13 -7 3 -13 10 -13 16 0 6 -11 19 -25 30 -21 16 -25 28 -25 68 0 27 5 52 10
55 6 3 10 15 10 26 0 20 -20 24 -56 9z"/>
<path d="M2972 2088 c-22 -22 -14 -40 16 -36 19 2 27 9 27 23 0 23 -25 31 -43
13z"/>
<path d="M2480 2045 c0 -9 9 -15 25 -15 28 0 34 15 9 24 -25 10 -34 7 -34 -9z"/>
<path d="M3965 2030 c-19 -8 -19 -9 2 -9 12 -1 25 4 28 9 7 12 -2 12 -30 0z"/>
<path d="M3777 1999 c-10 -11 -15 -24 -11 -27 4 -4 9 -1 11 6 3 6 11 12 19 12
8 0 14 7 14 15 0 21 -12 19 -33 -6z"/>
<path d="M3846 1969 c-11 -17 -13 -26 -5 -36 16 -19 31 -5 19 17 -7 13 -6 20
3 23 6 2 9 7 6 11 -4 4 -14 -3 -23 -15z"/>
<path d="M3720 1940 c0 -5 9 -10 20 -10 11 0 20 5 20 10 0 6 -9 10 -20 10 -11
0 -20 -4 -20 -10z"/>
<path d="M2386 1745 c-29 -30 -13 -51 30 -41 19 5 25 12 22 29 -4 27 -30 33
-52 12z"/>
<path d="M1280 1689 c0 -14 -25 -39 -39 -39 -6 0 -11 -4 -11 -10 0 -5 -7 -10
-15 -10 -8 0 -15 -4 -15 -10 0 -19 39 -10 50 11 7 11 17 18 24 16 7 -3 13 6
14 24 1 16 0 29 -3 29 -3 0 -5 -5 -5 -11z"/>
<path d="M3605 1637 c1 -12 6 -21 11 -20 15 3 15 19 1 31 -11 9 -13 7 -12 -11z"/>
<path d="M3638 1635 c3 -19 8 -23 15 -16 8 8 7 16 -5 27 -14 14 -15 14 -10
-11z"/>
<path d="M1120 1590 c0 -5 5 -10 10 -10 6 0 10 5 10 10 0 6 -4 10 -10 10 -5 0
-10 -4 -10 -10z"/>
<path d="M3762 1530 c-1 -26 -7 -51 -13 -57 -6 -6 -8 -17 -4 -23 6 -9 10 -9
17 1 7 10 8 8 3 -6 -11 -34 -11 -40 4 -40 11 0 15 13 16 43 1 23 -2 42 -6 42
-4 0 -10 19 -12 43 l-4 42 -1 -45z"/>
<path d="M2260 1545 c0 -11 7 -15 23 -13 12 2 22 8 22 13 0 6 -10 11 -22 13
-16 2 -23 -2 -23 -13z"/>
<path d="M1882 1521 c4 -13 18 -16 19 -4 0 4 -5 9 -11 12 -7 2 -11 -2 -8 -8z"/>
<path d="M3700 1460 c0 -5 5 -10 10 -10 6 0 10 5 10 10 0 6 -4 10 -10 10 -5 0
-10 -4 -10 -10z"/>
<path d="M2684 1435 c-7 -18 3 -35 22 -35 8 0 14 10 14 25 0 27 -27 35 -36 10z"/>
<path d="M3905 1370 c0 -22 3 -40 7 -40 5 0 8 11 8 24 0 13 3 31 6 40 4 10 1
16 -8 16 -9 0 -13 -13 -13 -40z"/>
<path d="M3763 1323 c0 -10 6 -25 14 -34 12 -14 12 -19 -2 -32 -8 -9 -15 -27
-15 -41 0 -32 -6 -35 -82 -42 -34 -4 -68 -11 -75 -16 -23 -18 -70 -11 -114 19
-24 16 -51 29 -59 28 -37 -3 -70 -18 -70 -34 0 -20 27 -61 41 -61 16 0 79 -49
126 -96 39 -40 43 -42 52 -25 6 10 8 21 5 24 -8 8 34 19 46 12 5 -3 19 -1 30
5 11 6 20 7 20 1 0 -5 8 -7 19 -4 12 3 20 -2 24 -16 3 -12 9 -21 14 -21 17 0
53 41 53 60 0 11 11 30 25 42 27 24 32 47 13 66 -13 13 -3 16 35 13 9 -1 17 3
17 8 0 6 -10 11 -22 11 -17 0 -19 3 -10 12 7 7 12 18 12 26 0 18 -26 43 -42
40 -7 -2 -14 8 -16 22 -6 42 -38 69 -39 33z"/>
<path d="M2999 1284 c-8 -10 -9 -18 -2 -25 12 -12 43 -1 43 16 0 20 -27 26
-41 9z"/>
<path d="M2705 1238 c-9 -30 1 -63 20 -66 11 -2 17 -1 13 3 -4 4 -3 16 2 26 6
9 7 25 4 33 -7 19 -33 21 -39 4z"/>
<path d="M2888 1173 c-9 -2 -19 -14 -21 -26 l-4 -22 -2 23 c-2 35 -21 26 -21
-10 -1 -31 -1 -32 -15 -14 -14 19 -15 18 -16 -10 -1 -16 -3 -22 -6 -11 -4 14
-17 17 -84 17 -43 0 -79 -4 -79 -9 0 -5 -8 -12 -17 -14 -10 -2 -3 -2 15 0 35
4 155 -7 148 -14 -2 -2 -14 -5 -27 -7 -13 -1 -37 -6 -54 -11 -26 -7 -27 -9
-10 -15 11 -4 24 -2 28 4 5 7 7 3 5 -9 -2 -13 -14 -22 -33 -26 -30 -7 -30 -7
-3 -8 15 0 29 -5 33 -11 3 -5 12 -7 20 -3 11 4 15 -3 15 -27 0 -24 -4 -31 -15
-27 -8 4 -17 2 -20 -3 -4 -6 1 -10 9 -10 8 0 19 -7 24 -16 8 -14 10 -14 21 0
9 11 31 16 66 16 30 0 55 5 57 10 5 17 58 -13 58 -32 0 -10 7 -18 15 -18 16 0
20 20 6 35 -16 18 -31 103 -31 174 0 39 -4 71 -9 71 -5 0 -15 2 -23 4 -7 2
-21 2 -30 -1z m-11 -89 c-3 -3 -12 -4 -19 -1 -8 3 -5 6 6 6 11 1 17 -2 13 -5z
m-103 -44 c-21 -8 -37 -3 -29 10 3 4 15 6 27 2 21 -5 21 -6 2 -12z m104 -88
c2 -7 -3 -12 -12 -12 -9 0 -16 7 -16 16 0 17 22 14 28 -4z m-58 -2 c0 -5 -4
-10 -10 -10 -5 0 -10 5 -10 10 0 6 5 10 10 10 6 0 10 -4 10 -10z"/>
<path d="M2612 1153 c-15 -6 -6 -23 14 -23 8 0 14 7 14 15 0 15 -6 17 -28 8z"/>
<path d="M2445 1140 c-3 -5 1 -10 9 -10 9 0 16 5 16 10 0 6 -4 10 -9 10 -6 0
-13 -4 -16 -10z"/>
<path d="M2525 1120 c-3 -5 -1 -10 4 -10 6 0 11 5 11 10 0 6 -2 10 -4 10 -3 0
-8 -4 -11 -10z"/>
<path d="M2538 1083 c7 -3 16 -2 19 1 4 3 -2 6 -13 5 -11 0 -14 -3 -6 -6z"/>
<path d="M3638 951 c-16 -26 -55 -28 -61 -3 -3 9 -5 -3 -6 -26 -1 -48 18 -87
55 -115 20 -15 28 -16 39 -7 8 7 15 21 15 31 0 11 6 19 14 19 8 0 17 7 20 16
9 23 7 64 -2 64 -5 0 -14 10 -20 23 -6 12 -11 16 -11 8 -1 -11 -4 -11 -15 -1
-12 9 -17 7 -28 -9z"/>
<path d="M1820 750 c-13 -8 -12 -10 3 -10 9 0 17 5 17 10 0 12 -1 12 -20 0z"/>
<path d="M2505 730 c3 -5 10 -10 16 -10 5 0 9 5 9 10 0 6 -7 10 -16 10 -8 0
-12 -4 -9 -10z"/>
<path d="M2160 720 c0 -5 18 -10 40 -10 22 0 40 5 40 10 0 6 -18 10 -40 10
-22 0 -40 -4 -40 -10z"/>
<path d="M1351 704 c0 -11 3 -14 6 -6 3 7 2 16 -1 19 -3 4 -6 -2 -5 -13z"/>
<path d="M3105 700 c-3 -5 -1 -10 4 -10 6 0 11 5 11 10 0 6 -2 10 -4 10 -3 0
-8 -4 -11 -10z"/>
<path d="M2088 683 c7 -3 16 -2 19 1 4 3 -2 6 -13 5 -11 0 -14 -3 -6 -6z"/>
<path d="M1300 640 c0 -5 5 -10 10 -10 6 0 10 5 10 10 0 6 -4 10 -10 10 -5 0
-10 -4 -10 -10z"/>
<path d="M1240 580 c0 -5 5 -10 10 -10 6 0 10 5 10 10 0 6 -4 10 -10 10 -5 0
-10 -4 -10 -10z"/>
<path d="M340 490 c0 -33 3 -40 20 -40 17 0 20 7 20 40 0 33 -3 40 -20 40 -17
0 -20 -7 -20 -40z"/>
<path d="M660 470 c0 -5 5 -10 10 -10 6 0 10 5 10 10 0 6 -4 10 -10 10 -5 0
-10 -4 -10 -10z"/>
<path d="M497 418 c-10 -36 -8 -48 8 -48 16 0 20 36 6 58 -6 10 -10 8 -14 -10z"/>
<path d="M275 410 c-11 -17 5 -32 21 -19 7 6 11 15 8 20 -7 12 -21 11 -29 -1z"/>
<path d="M400 380 c0 -5 18 -10 40 -10 22 0 40 5 40 10 0 6 -18 10 -40 10 -22
0 -40 -4 -40 -10z"/>
<path d="M311 303 c-8 -15 -13 -16 -30 -5 -13 7 -21 8 -21 2 0 -5 5 -10 11
-10 6 0 9 -17 7 -42 -2 -31 -8 -44 -20 -46 -14 -3 -18 3 -18 25 l-1 28 -18
-22 c-11 -13 -22 -23 -26 -23 -3 0 -14 -7 -22 -16 -13 -13 -30 -15 -95 -9
l-78 7 0 -96 0 -96 405 0 405 0 0 24 c0 13 -7 26 -15 30 -8 3 -15 12 -15 20 0
20 -47 69 -59 62 -5 -3 -12 13 -16 36 l-7 41 -20 -24 -20 -24 6 32 c6 38 -12
53 -68 53 -29 0 -36 -4 -36 -20 0 -17 -7 -20 -40 -20 -38 0 -40 2 -40 30 0 28
-2 30 -40 30 -36 0 -40 3 -40 25 0 22 -4 25 -40 25 -27 0 -42 -5 -49 -17z"/>
<path d="M560 305 c0 -8 5 -15 10 -15 6 0 10 7 10 15 0 8 -4 15 -10 15 -5 0
-10 -7 -10 -15z"/>
<path d="M145 220 c-3 -5 -1 -10 4 -10 6 0 11 5 11 10 0 6 -2 10 -4 10 -3 0
-8 -4 -11 -10z"/>
</g>
</svg>
